<svg width="280" height="269" viewBox="0 0 280 269" fill="none" xmlns="http://www.w3.org/2000/svg">
<g filter="url(#filter0_d_644_8122)">
<g clip-path="url(#clip0_644_8122)">
<path d="M4 10C4 4.47715 8.47715 0 14 0H266C271.523 0 276 4.47715 276 10V251C276 256.523 271.523 261 266 261H14C8.47715 261 4 256.523 4 251V10Z" fill="white"/>
<rect x="4" y="-4" width="110" height="265" fill="#E3D068"/>
<path d="M45.2281 123.924C42.7818 121.91 38.5007 110.833 38.5007 107.811C37.0329 105.932 36.3601 102.105 36.2072 100.426C36.0033 99.0837 36.0237 96.0626 37.7362 94.7199C35.9014 91.0945 36.564 82.5794 37.1246 78.775C38.294 76.14 40.8609 71.7914 44.3809 68.4638C48.8875 64.2035 55.5992 63.5844 61.6853 64.7752C69.3356 66.2721 75.1132 69.9067 79.0183 75.4182C83.2994 81.4604 81.7194 91.5868 80.3943 95.8947C80.4963 95.615 80.9142 95.6262 81.7704 97.9088C82.8407 100.762 80.3943 107.811 78.8654 109.154C78.8654 113.854 73.0553 123.085 71.8321 124.428C71.8405 124.445 71.8491 124.463 71.8577 124.48M45.2281 123.924C44.8612 125.938 41.5076 128.68 39.8767 129.798L24.1284 137.016C22.8542 137.407 19.725 139.802 17.4009 146.247C14.4959 154.303 12.0496 170.08 12.2025 171.591C11.8358 172.799 12.0497 178.472 12.2025 181.158C12.3042 181.978 12.5995 183.663 12.9669 183.843C28.4095 191.508 68.132 202.238 103.482 183.843C105.561 179.815 105.062 172.877 104.552 169.912C103.889 161.296 101.219 143.058 95.8369 139.03C90.4549 135.001 82.8916 132.204 79.7827 131.309C77.7062 130.197 73.234 127.284 71.8577 124.48M45.2281 123.924C46.2986 126.05 50.2103 130.876 57.4604 131.813C62.6589 132.484 70.0656 127.428 71.8577 124.48M58.9894 145.072L52.262 133.994C57.889 136.814 63.8823 135.169 66.1756 133.994L58.9894 145.072ZM58.9894 145.072L53.7909 149.1L58.9894 184.347L64.4937 149.1L58.9894 145.072Z" stroke="white" stroke-width="3"/>
<g filter="url(#filter1_i_644_8122)">
<path d="M127.766 120.264C126.534 120.264 125.405 119.993 124.378 119.45C123.366 118.893 122.552 118.064 121.936 116.964C121.32 115.864 121.012 114.515 121.012 112.916C121.012 111.728 121.188 110.672 121.54 109.748C121.907 108.809 122.405 108.017 123.036 107.372C123.667 106.727 124.385 106.235 125.192 105.898C126.013 105.561 126.879 105.392 127.788 105.392C128.712 105.392 129.541 105.575 130.274 105.942C131.007 106.309 131.616 106.749 132.1 107.262L130.384 109.22C130.032 108.883 129.651 108.633 129.24 108.472C128.829 108.296 128.367 108.208 127.854 108.208C127.223 108.208 126.637 108.399 126.094 108.78C125.566 109.147 125.141 109.675 124.818 110.364C124.495 111.053 124.334 111.867 124.334 112.806C124.334 113.789 124.488 114.632 124.796 115.336C125.104 116.025 125.529 116.553 126.072 116.92C126.629 117.287 127.267 117.47 127.986 117.47C128.543 117.47 129.042 117.353 129.482 117.118C129.922 116.883 130.311 116.605 130.648 116.282L132.276 118.196C131.66 118.885 130.978 119.406 130.23 119.758C129.482 120.095 128.661 120.264 127.766 120.264ZM139.512 120.264C138.222 120.264 137.085 119.963 136.102 119.362C135.134 118.761 134.372 117.903 133.814 116.788C133.272 115.673 133 114.331 133 112.762C133 111.207 133.272 109.88 133.814 108.78C134.372 107.68 135.134 106.844 136.102 106.272C137.085 105.685 138.222 105.392 139.512 105.392C140.803 105.392 141.94 105.685 142.922 106.272C143.905 106.844 144.668 107.68 145.21 108.78C145.753 109.88 146.024 111.207 146.024 112.762C146.024 114.331 145.753 115.673 145.21 116.788C144.668 117.903 143.905 118.761 142.922 119.362C141.94 119.963 140.803 120.264 139.512 120.264ZM139.512 117.47C140.172 117.47 140.737 117.279 141.206 116.898C141.69 116.502 142.057 115.952 142.306 115.248C142.57 114.544 142.702 113.715 142.702 112.762C142.702 111.809 142.57 110.995 142.306 110.32C142.057 109.631 141.69 109.11 141.206 108.758C140.737 108.391 140.172 108.208 139.512 108.208C138.867 108.208 138.302 108.391 137.818 108.758C137.334 109.11 136.96 109.631 136.696 110.32C136.447 110.995 136.322 111.809 136.322 112.762C136.322 113.715 136.447 114.544 136.696 115.248C136.96 115.952 137.334 116.502 137.818 116.898C138.302 117.279 138.867 117.47 139.512 117.47ZM148.721 120V105.656H152.109L155.783 112.718C156.047 113.202 156.289 113.723 156.509 114.28C156.744 114.823 156.971 115.38 157.191 115.952H157.279C157.206 115.175 157.118 114.324 157.015 113.4C156.913 112.476 156.861 111.589 156.861 110.738V105.656H159.963V120H156.575L152.901 112.938C152.652 112.454 152.403 111.933 152.153 111.376C151.919 110.819 151.691 110.261 151.471 109.704H151.383C151.471 110.496 151.567 111.354 151.669 112.278C151.772 113.187 151.823 114.067 151.823 114.918V120H148.721ZM166.146 120V108.384H162.208V105.656H173.34V108.384H169.402V120H166.146ZM175.577 120V105.656H180.747C181.759 105.656 182.683 105.795 183.519 106.074C184.355 106.338 185.022 106.8 185.521 107.46C186.019 108.105 186.269 108.993 186.269 110.122C186.269 111.222 186.019 112.117 185.521 112.806C185.022 113.495 184.355 114.009 183.519 114.346C182.683 114.669 181.759 114.83 180.747 114.83H178.811V120H175.577ZM178.811 112.256H180.483C181.333 112.256 181.979 112.08 182.419 111.728C182.873 111.361 183.101 110.826 183.101 110.122C183.101 109.418 182.873 108.927 182.419 108.648C181.979 108.369 181.333 108.23 180.483 108.23H178.811V112.256ZM183.343 120L180.153 113.994L182.397 111.904L186.973 120H183.343ZM187.071 120L191.559 105.656H195.431L199.941 120H196.509L194.639 112.74C194.434 112.021 194.236 111.259 194.045 110.452C193.854 109.645 193.664 108.868 193.473 108.12H193.385C193.224 108.868 193.048 109.645 192.857 110.452C192.666 111.259 192.468 112.021 192.263 112.74L190.371 120H187.071ZM190.019 116.59V114.06H196.927V116.59H190.019ZM207.366 120.264C206.134 120.264 205.004 119.993 203.978 119.45C202.966 118.893 202.152 118.064 201.536 116.964C200.92 115.864 200.612 114.515 200.612 112.916C200.612 111.728 200.788 110.672 201.14 109.748C201.506 108.809 202.005 108.017 202.636 107.372C203.266 106.727 203.985 106.235 204.792 105.898C205.613 105.561 206.478 105.392 207.388 105.392C208.312 105.392 209.14 105.575 209.874 105.942C210.607 106.309 211.216 106.749 211.7 107.262L209.984 109.22C209.632 108.883 209.25 108.633 208.84 108.472C208.429 108.296 207.967 108.208 207.454 108.208C206.823 108.208 206.236 108.399 205.694 108.78C205.166 109.147 204.74 109.675 204.418 110.364C204.095 111.053 203.934 111.867 203.934 112.806C203.934 113.789 204.088 114.632 204.396 115.336C204.704 116.025 205.129 116.553 205.672 116.92C206.229 117.287 206.867 117.47 207.586 117.47C208.143 117.47 208.642 117.353 209.082 117.118C209.522 116.883 209.91 116.605 210.248 116.282L211.876 118.196C211.26 118.885 210.578 119.406 209.83 119.758C209.082 120.095 208.26 120.264 207.366 120.264ZM216.613 120V108.384H212.675V105.656H223.807V108.384H219.869V120H216.613ZM231.272 120.264C229.981 120.264 228.845 119.963 227.862 119.362C226.894 118.761 226.131 117.903 225.574 116.788C225.031 115.673 224.76 114.331 224.76 112.762C224.76 111.207 225.031 109.88 225.574 108.78C226.131 107.68 226.894 106.844 227.862 106.272C228.845 105.685 229.981 105.392 231.272 105.392C232.563 105.392 233.699 105.685 234.682 106.272C235.665 106.844 236.427 107.68 236.97 108.78C237.513 109.88 237.784 111.207 237.784 112.762C237.784 114.331 237.513 115.673 236.97 116.788C236.427 117.903 235.665 118.761 234.682 119.362C233.699 119.963 232.563 120.264 231.272 120.264ZM231.272 117.47C231.932 117.47 232.497 117.279 232.966 116.898C233.45 116.502 233.817 115.952 234.066 115.248C234.33 114.544 234.462 113.715 234.462 112.762C234.462 111.809 234.33 110.995 234.066 110.32C233.817 109.631 233.45 109.11 232.966 108.758C232.497 108.391 231.932 108.208 231.272 108.208C230.627 108.208 230.062 108.391 229.578 108.758C229.094 109.11 228.72 109.631 228.456 110.32C228.207 110.995 228.082 111.809 228.082 112.762C228.082 113.715 228.207 114.544 228.456 115.248C228.72 115.952 229.094 116.502 229.578 116.898C230.062 117.279 230.627 117.47 231.272 117.47ZM240.481 120V105.656H245.651C246.663 105.656 247.587 105.795 248.423 106.074C249.259 106.338 249.926 106.8 250.425 107.46C250.924 108.105 251.173 108.993 251.173 110.122C251.173 111.222 250.924 112.117 250.425 112.806C249.926 113.495 249.259 114.009 248.423 114.346C247.587 114.669 246.663 114.83 245.651 114.83H243.715V120H240.481ZM243.715 112.256H245.387C246.238 112.256 246.883 112.08 247.323 111.728C247.778 111.361 248.005 110.826 248.005 110.122C248.005 109.418 247.778 108.927 247.323 108.648C246.883 108.369 246.238 108.23 245.387 108.23H243.715V112.256ZM248.247 120L245.057 113.994L247.301 111.904L251.877 120H248.247ZM254.545 112.256L253.841 110.848C254.501 110.525 254.993 110.144 255.315 109.704C255.653 109.249 255.821 108.692 255.821 108.032L255.733 106.14L256.811 107.614C256.635 107.746 256.445 107.856 256.239 107.944C256.049 108.032 255.843 108.076 255.623 108.076C255.154 108.076 254.751 107.929 254.413 107.636C254.091 107.343 253.929 106.954 253.929 106.47C253.929 105.913 254.083 105.473 254.391 105.15C254.714 104.827 255.125 104.666 255.623 104.666C256.298 104.666 256.811 104.923 257.163 105.436C257.515 105.935 257.691 106.639 257.691 107.548C257.691 108.589 257.435 109.506 256.921 110.298C256.408 111.075 255.616 111.728 254.545 112.256ZM263.001 120.264C262.283 120.264 261.542 120.125 260.779 119.846C260.017 119.567 259.364 119.164 258.821 118.636L260.185 116.81C260.684 117.206 261.175 117.485 261.659 117.646C262.158 117.793 262.635 117.866 263.089 117.866C263.573 117.866 263.925 117.785 264.145 117.624C264.365 117.448 264.475 117.221 264.475 116.942C264.475 116.693 264.373 116.487 264.167 116.326C263.977 116.165 263.72 116.025 263.397 115.908C263.089 115.776 262.737 115.637 262.341 115.49C261.813 115.299 261.329 115.057 260.889 114.764C260.449 114.471 260.09 114.119 259.811 113.708C259.547 113.297 259.415 112.806 259.415 112.234C259.415 111.207 259.797 110.386 260.559 109.77C261.337 109.139 262.349 108.824 263.595 108.824C264.387 108.824 265.106 108.956 265.751 109.22C266.411 109.469 266.976 109.799 267.445 110.21L266.059 112.014C265.663 111.735 265.267 111.537 264.871 111.42C264.475 111.288 264.087 111.222 263.705 111.222C263.28 111.222 262.965 111.303 262.759 111.464C262.554 111.625 262.451 111.831 262.451 112.08C262.451 112.285 262.525 112.461 262.671 112.608C262.818 112.755 263.038 112.894 263.331 113.026C263.639 113.143 264.021 113.275 264.475 113.422C265.033 113.613 265.539 113.855 265.993 114.148C266.463 114.427 266.829 114.779 267.093 115.204C267.357 115.629 267.489 116.143 267.489 116.744C267.489 117.404 267.313 117.998 266.961 118.526C266.624 119.054 266.125 119.479 265.465 119.802C264.805 120.11 263.984 120.264 263.001 120.264ZM127.766 151.264C126.534 151.264 125.405 150.993 124.378 150.45C123.366 149.893 122.552 149.064 121.936 147.964C121.32 146.864 121.012 145.515 121.012 143.916C121.012 142.728 121.188 141.672 121.54 140.748C121.907 139.809 122.405 139.017 123.036 138.372C123.667 137.727 124.385 137.235 125.192 136.898C126.013 136.561 126.879 136.392 127.788 136.392C128.712 136.392 129.541 136.575 130.274 136.942C131.007 137.309 131.616 137.749 132.1 138.262L130.384 140.22C130.032 139.883 129.651 139.633 129.24 139.472C128.829 139.296 128.367 139.208 127.854 139.208C127.223 139.208 126.637 139.399 126.094 139.78C125.566 140.147 125.141 140.675 124.818 141.364C124.495 142.053 124.334 142.867 124.334 143.806C124.334 144.789 124.488 145.632 124.796 146.336C125.104 147.025 125.529 147.553 126.072 147.92C126.629 148.287 127.267 148.47 127.986 148.47C128.543 148.47 129.042 148.353 129.482 148.118C129.922 147.883 130.311 147.605 130.648 147.282L132.276 149.196C131.66 149.885 130.978 150.406 130.23 150.758C129.482 151.095 128.661 151.264 127.766 151.264ZM139.512 151.264C138.222 151.264 137.085 150.963 136.102 150.362C135.134 149.761 134.372 148.903 133.814 147.788C133.272 146.673 133 145.331 133 143.762C133 142.207 133.272 140.88 133.814 139.78C134.372 138.68 135.134 137.844 136.102 137.272C137.085 136.685 138.222 136.392 139.512 136.392C140.803 136.392 141.94 136.685 142.922 137.272C143.905 137.844 144.668 138.68 145.21 139.78C145.753 140.88 146.024 142.207 146.024 143.762C146.024 145.331 145.753 146.673 145.21 147.788C144.668 148.903 143.905 149.761 142.922 150.362C141.94 150.963 140.803 151.264 139.512 151.264ZM139.512 148.47C140.172 148.47 140.737 148.279 141.206 147.898C141.69 147.502 142.057 146.952 142.306 146.248C142.57 145.544 142.702 144.715 142.702 143.762C142.702 142.809 142.57 141.995 142.306 141.32C142.057 140.631 141.69 140.11 141.206 139.758C140.737 139.391 140.172 139.208 139.512 139.208C138.867 139.208 138.302 139.391 137.818 139.758C137.334 140.11 136.96 140.631 136.696 141.32C136.447 141.995 136.322 142.809 136.322 143.762C136.322 144.715 136.447 145.544 136.696 146.248C136.96 146.952 137.334 147.502 137.818 147.898C138.302 148.279 138.867 148.47 139.512 148.47ZM148.721 151V136.656H153.891C154.903 136.656 155.827 136.795 156.663 137.074C157.499 137.338 158.167 137.8 158.665 138.46C159.164 139.105 159.413 139.993 159.413 141.122C159.413 142.222 159.164 143.117 158.665 143.806C158.167 144.495 157.499 145.009 156.663 145.346C155.827 145.669 154.903 145.83 153.891 145.83H151.955V151H148.721ZM151.955 143.256H153.627C154.478 143.256 155.123 143.08 155.563 142.728C156.018 142.361 156.245 141.826 156.245 141.122C156.245 140.418 156.018 139.927 155.563 139.648C155.123 139.369 154.478 139.23 153.627 139.23H151.955V143.256ZM156.487 151L153.297 144.994L155.541 142.904L160.117 151H156.487ZM162.214 151V136.656H165.602L169.276 143.718C169.54 144.202 169.782 144.723 170.002 145.28C170.236 145.823 170.464 146.38 170.684 146.952H170.772C170.698 146.175 170.61 145.324 170.508 144.4C170.405 143.476 170.354 142.589 170.354 141.738V136.656H173.456V151H170.068L166.394 143.938C166.144 143.454 165.895 142.933 165.646 142.376C165.411 141.819 165.184 141.261 164.964 140.704H164.876C164.964 141.496 165.059 142.354 165.162 143.278C165.264 144.187 165.316 145.067 165.316 145.918V151H162.214ZM176.844 151V136.656H185.82V139.384H180.078V142.266H184.962V144.972H180.078V148.272H186.04V151H176.844ZM188.897 151V136.656H194.067C195.079 136.656 196.003 136.795 196.839 137.074C197.675 137.338 198.342 137.8 198.841 138.46C199.34 139.105 199.589 139.993 199.589 141.122C199.589 142.222 199.34 143.117 198.841 143.806C198.342 144.495 197.675 145.009 196.839 145.346C196.003 145.669 195.079 145.83 194.067 145.83H192.131V151H188.897ZM192.131 143.256H193.803C194.654 143.256 195.299 143.08 195.739 142.728C196.194 142.361 196.421 141.826 196.421 141.122C196.421 140.418 196.194 139.927 195.739 139.648C195.299 139.369 194.654 139.23 193.803 139.23H192.131V143.256ZM196.663 151L193.473 144.994L195.717 142.904L200.293 151H196.663Z" fill="#D9C96D"/>
</g>
</g>
</g>
<defs>
<filter id="filter0_d_644_8122" x="0" y="0" width="280" height="269" filterUnits="userSpaceOnUse" color-interpolation-filters="sRGB">
<feFlood flood-opacity="0" result="BackgroundImageFix"/>
<feColorMatrix in="SourceAlpha" type="matrix" values="0 0 0 0 0 0 0 0 0 0 0 0 0 0 0 0 0 0 127 0" result="hardAlpha"/>
<feOffset dy="4"/>
<feGaussianBlur stdDeviation="2"/>
<feComposite in2="hardAlpha" operator="out"/>
<feColorMatrix type="matrix" values="0 0 0 0 0 0 0 0 0 0 0 0 0 0 0 0 0 0 0.25 0"/>
<feBlend mode="normal" in2="BackgroundImageFix" result="effect1_dropShadow_644_8122"/>
<feBlend mode="normal" in="SourceGraphic" in2="effect1_dropShadow_644_8122" result="shape"/>
</filter>
<filter id="filter1_i_644_8122" x="121.012" y="104.666" width="146.477" height="50.5979" filterUnits="userSpaceOnUse" color-interpolation-filters="sRGB">
<feFlood flood-opacity="0" result="BackgroundImageFix"/>
<feBlend mode="normal" in="SourceGraphic" in2="BackgroundImageFix" result="shape"/>
<feColorMatrix in="SourceAlpha" type="matrix" values="0 0 0 0 0 0 0 0 0 0 0 0 0 0 0 0 0 0 127 0" result="hardAlpha"/>
<feOffset dy="4"/>
<feGaussianBlur stdDeviation="2"/>
<feComposite in2="hardAlpha" operator="arithmetic" k2="-1" k3="1"/>
<feColorMatrix type="matrix" values="0 0 0 0 0 0 0 0 0 0 0 0 0 0 0 0 0 0 0.25 0"/>
<feBlend mode="normal" in2="shape" result="effect1_innerShadow_644_8122"/>
</filter>
<clipPath id="clip0_644_8122">
<path d="M4 10C4 4.47715 8.47715 0 14 0H266C271.523 0 276 4.47715 276 10V251C276 256.523 271.523 261 266 261H14C8.47715 261 4 256.523 4 251V10Z" fill="white"/>
</clipPath>
</defs>
</svg>
