<svg width="79" height="71" viewBox="0 0 79 71" fill="none" xmlns="http://www.w3.org/2000/svg">
<path d="M1.64453 41.5742C11.8331 81.017 69.0805 76.6288 77.4533 41.5742" stroke="black" stroke-width="1.61402" stroke-linecap="round"/>
<path d="M77.4531 29.6887C67.2646 -9.75402 10.0171 -5.36589 1.64439 29.6887" stroke="black" stroke-width="1.61402" stroke-linecap="round"/>
<path d="M25.1119 24.5018L27.476 22.7567L28.7786 23.8038L29.5023 24.3709L29.6471 24.5018L29.6953 24.5891L29.7237 24.6404C29.7369 24.6643 29.7472 24.6896 29.7545 24.7159L29.7918 24.8508V24.9817L29.7436 25.1562L29.6471 25.2871L29.4541 25.4616L28.9716 25.8543L28.0067 26.596L26.9452 27.2068L26.318 27.4249L25.6908 27.5558H25.0636L24.3882 27.4249L23.7609 27.1631L23.0855 26.7705L21.8311 25.8979L21.3003 25.418L20.7696 24.8945L20.5766 24.6763L20.3354 24.3709L19.9977 23.7165L19.8047 23.1493V22.6694L19.9012 22.0586L20.0942 21.4914L20.4319 20.9243L20.8179 20.4007L21.7346 19.5718L22.6513 18.8737L23.1337 18.5683L23.6162 18.3066L24.0987 18.0884L24.6294 17.9139L25.1601 17.8267H25.6908L26.3663 17.9575L26.9935 18.2193L28.1032 18.8737L29.1164 19.6154L29.5584 20.0151C29.5852 20.0394 29.609 20.067 29.629 20.0972L29.7043 20.2106C29.7302 20.2497 29.748 20.2936 29.7565 20.3398L29.7749 20.4399C29.7858 20.4992 29.7759 20.5605 29.7467 20.6132L29.6953 20.7061L29.5506 20.8806L29.2611 21.1424L28.6339 21.6223L27.476 22.6258L25.1119 20.7934L24.8706 20.7498H24.6294L24.3882 20.7934L24.1469 20.9243L23.9734 21.0812C23.9604 21.0929 23.9487 21.1059 23.9384 21.1199L23.8574 21.2297L23.7609 21.4042L23.7127 21.6223L23.7366 23.9783L24.0022 24.2837L24.1952 24.4145L24.3882 24.5018L24.7741 24.5454L25.1119 24.5018Z" fill="#72BC55"/>
<path d="M25.1119 20.7934L27.476 22.6258L28.6339 21.6223L29.2611 21.1424L29.5506 20.8806L29.6953 20.7061L29.7467 20.6132C29.7759 20.5605 29.7858 20.4992 29.7749 20.4399L29.7565 20.3398C29.748 20.2936 29.7302 20.2497 29.7043 20.2106L29.629 20.0972C29.609 20.067 29.5852 20.0394 29.5584 20.0151L29.1164 19.6154L28.1032 18.8737L26.9935 18.2193L26.3663 17.9575L25.6908 17.8267H25.1601L24.6294 17.9139L24.0987 18.0884L23.6162 18.3066L23.1337 18.5683L22.6513 18.8737L21.7346 19.5718M25.1119 20.7934L23.7955 19.7306C23.7726 19.7121 23.7473 19.6965 23.7204 19.6844L23.568 19.6154L23.3267 19.5282L22.8889 19.4094C22.8593 19.4014 22.8287 19.3973 22.798 19.3973H22.796H22.4971C22.4713 19.3973 22.4456 19.4002 22.4204 19.4058L22.2653 19.4409L21.7346 19.5718M25.1119 20.7934L24.8706 20.7498H24.6294L24.3882 20.7934L24.1469 20.9243L23.9734 21.0812C23.9604 21.0929 23.9487 21.1059 23.9384 21.1199L23.8574 21.2297L23.7609 21.4042L23.7127 21.6223L23.7366 23.9783M23.7366 23.9783L23.7368 25.2435L23.7589 26.2797C23.7602 26.3443 23.776 26.4078 23.805 26.4655L23.9594 26.7726C23.9877 26.829 24.0247 26.8807 24.069 26.9257L24.2972 27.1578C24.3573 27.219 24.4283 27.2685 24.5064 27.3039L25.0636 27.5558M23.7366 23.9783L24.0022 24.2837L24.1952 24.4145L24.3882 24.5018L24.7741 24.5454L25.1119 24.5018L27.476 22.7567L28.7786 23.8038L29.5023 24.3709L29.6471 24.5018L29.6953 24.5891L29.7237 24.6404C29.7369 24.6643 29.7472 24.6896 29.7545 24.7159L29.7918 24.8508V24.9817L29.7436 25.1562L29.6471 25.2871L29.4541 25.4616L28.9716 25.8543L28.0067 26.596L26.9452 27.2068L26.318 27.4249L25.6908 27.5558H25.0636M21.7346 19.5718L20.8179 20.4007L20.4319 20.9243L20.0942 21.4914L19.9012 22.0586L19.8047 22.6694V23.1493L19.9977 23.7165L20.3354 24.3709L20.5766 24.6763L20.7696 24.8945L21.3003 25.418L21.8311 25.8979L23.0855 26.7705L23.7609 27.1631L24.3882 27.4249L25.0636 27.5558" stroke="white" stroke-width="0.0868673" stroke-linecap="round"/>
<path d="M33.1554 24.1409V27.4914H30.6426V25.3651V23.0548C30.6426 22.8839 30.7104 22.72 30.8313 22.5992L30.8552 22.5753C30.8852 22.5453 30.9181 22.5183 30.9534 22.4948L31.2151 22.3203C31.2627 22.2885 31.3144 22.2632 31.3687 22.2451L31.6255 22.1595C31.6574 22.1489 31.6901 22.1408 31.7233 22.1353L32.06 22.0791L36.2649 21.8909C36.3388 21.8875 36.4111 21.8687 36.4773 21.8357C36.5795 21.7846 36.6623 21.7018 36.7134 21.5996L36.7635 21.4992L36.8244 21.3776C36.8691 21.2881 36.8924 21.1894 36.8924 21.0894V20.9838V20.8502C36.8924 20.7682 36.8768 20.687 36.8463 20.6109L36.8306 20.5717C36.7867 20.4619 36.7135 20.3664 36.619 20.2955L36.2481 20.0173H32.3178L30.5781 17.8267H36.669C36.7317 17.8267 36.794 17.8358 36.8541 17.8538L37.4078 18.02L37.9211 18.2481C37.9654 18.2678 38.0073 18.2923 38.046 18.3214L38.4466 18.6218C38.4842 18.65 38.5186 18.6823 38.5492 18.718L38.8898 19.1153L39.1777 19.576C39.2005 19.6124 39.2195 19.651 39.2346 19.6912L39.3786 20.0752C39.3963 20.1223 39.4084 20.1715 39.4146 20.2215L39.4697 20.6616V21.2415L39.3408 21.757L39.2764 21.9503L39.1667 22.2245C39.1539 22.2564 39.1386 22.2872 39.1209 22.3167L38.7609 22.9167L38.5479 23.183C38.5182 23.2201 38.4844 23.2539 38.4473 23.2836L38.2242 23.4621C38.1955 23.4851 38.1648 23.5055 38.1326 23.5233L37.4723 23.887L40.565 27.5558H37.6656L34.7662 24.0462L33.1554 24.1409Z" fill="#72BC55"/>
<path d="M33.1554 24.1409V27.4914H30.6426V25.3651M33.1554 24.1409L34.7662 24.0462M33.1554 24.1409L32.3822 24.2054L32.0643 24.2583C32.0186 24.266 31.9739 24.2785 31.9309 24.2957L31.7214 24.3795C31.6895 24.3922 31.6587 24.4075 31.6292 24.4252L31.4193 24.5511C31.3741 24.5782 31.3325 24.6108 31.2952 24.648L31.0936 24.8497L30.6426 25.3651M36.2481 20.0173H32.3178L30.5781 17.8267H36.669C36.7317 17.8267 36.794 17.8358 36.8541 17.8538L37.4078 18.02L37.9211 18.2481C37.9654 18.2678 38.0073 18.2923 38.046 18.3214L38.4466 18.6218C38.4842 18.65 38.5186 18.6823 38.5492 18.718L38.8898 19.1153L39.1777 19.576C39.2005 19.6124 39.2195 19.651 39.2346 19.6912L39.3786 20.0752C39.3963 20.1223 39.4084 20.1715 39.4146 20.2215L39.4697 20.6616V21.2415L39.3408 21.757M36.2481 20.0173L36.619 20.2955C36.7135 20.3664 36.7867 20.4619 36.8306 20.5717L36.8463 20.6109C36.8768 20.687 36.8924 20.7682 36.8924 20.8502V20.9838V21.0894C36.8924 21.1894 36.8691 21.2881 36.8244 21.3776L36.7635 21.4992L36.7134 21.5996C36.6623 21.7018 36.5795 21.7846 36.4773 21.8357V21.8357C36.4111 21.8687 36.3388 21.8875 36.2649 21.8909L32.06 22.0791L31.7233 22.1353C31.6901 22.1408 31.6574 22.1489 31.6255 22.1595L31.3687 22.2451C31.3144 22.2632 31.2627 22.2885 31.2151 22.3203L30.9534 22.4948C30.9181 22.5183 30.8852 22.5453 30.8552 22.5753L30.8313 22.5992C30.7104 22.72 30.6426 22.8839 30.6426 23.0548V25.3651M36.2481 20.0173H36.7554C36.8036 20.0173 36.8517 20.0227 36.8988 20.0335L37.5058 20.1721L37.8533 20.3024L38.331 20.5195L38.5601 20.6505C38.6099 20.6789 38.6556 20.7138 38.6961 20.7543L38.9825 21.0407L39.1414 21.2261C39.2083 21.3041 39.2555 21.3969 39.2792 21.4969L39.3408 21.757M37.4723 23.887L40.565 27.5558H37.6656L34.7662 24.0462M37.4723 23.887L37.3196 23.9611C37.2501 23.9948 37.1752 24.0158 37.0983 24.0229L36.8497 24.0462L36.1192 24.0765L34.7662 24.0462M37.4723 23.887L38.1326 23.5233C38.1648 23.5055 38.1955 23.4851 38.2242 23.4621L38.4473 23.2836C38.4844 23.2539 38.5182 23.2201 38.5479 23.183L38.7609 22.9167L39.1209 22.3167C39.1386 22.2872 39.1539 22.2564 39.1667 22.2245L39.2764 21.9503L39.3408 21.757" stroke="white" stroke-width="0.128863"/>
<path d="M46.1408 27.3589L45.9825 27.3839C45.4288 27.4713 44.8631 27.4448 44.32 27.3058C43.9937 27.2224 43.6789 27.0992 43.3826 26.939L42.6936 26.5666L42.4029 26.3365C42.1086 26.1034 41.8451 25.8328 41.6198 25.5325C41.4796 25.3456 41.3545 25.1473 41.2461 24.9404C41.1306 24.7199 41.0342 24.4898 40.958 24.2529L40.7964 23.7499L40.7128 23.3183C40.6462 22.9741 40.6226 22.623 40.6426 22.273C40.6632 21.9123 40.73 21.5558 40.8412 21.2121L40.8484 21.1896C40.9559 20.8575 41.1024 20.5393 41.2848 20.2416L41.3896 20.0706C41.5246 19.8503 41.6784 19.6419 41.8491 19.4479C42.1255 19.1338 42.4442 18.8597 42.7961 18.6335L43.1233 18.4232L43.6442 18.1781L44.225 17.9641L44.6512 17.9032L45.1425 17.8725H45.5475C46.0899 17.8725 46.6273 17.976 47.1309 18.1774C47.3359 18.2595 47.5343 18.3573 47.7242 18.47L47.7533 18.4873C48.1938 18.7488 48.5885 19.0807 48.9219 19.4696L49.1544 19.7409L49.1808 19.7761C49.5887 20.3199 49.9008 20.9293 50.1039 21.578L50.2406 22.281C50.2924 22.5477 50.3108 22.8198 50.2953 23.091C50.2705 23.5256 50.1591 23.9508 49.9676 24.3417L49.8908 24.4984L49.8304 24.6219C49.6263 25.0386 49.3634 25.427 49.053 25.7719C48.6365 26.2347 48.128 26.6212 47.571 26.8997C47.1222 27.1241 46.6364 27.2807 46.1408 27.3589Z" fill="#72BC55" stroke="white" stroke-width="0.0917054"/>
<path d="M42.6398 22.4914L42.4529 21.7269L42.4453 21.6668C42.409 21.382 42.4116 21.0936 42.4529 20.8095L43.1518 20.5808C43.6801 20.4079 44.2299 20.3093 44.7854 20.288L45.5367 20.259L46.7626 20.3794C46.9829 20.401 47.2002 20.4474 47.4102 20.5176L48.5582 20.9012L48.501 21.4068C48.4769 21.6198 48.4336 21.8301 48.3717 22.0353L48.2156 22.5526L48.1009 22.8452C47.97 23.1794 47.807 23.5001 47.6143 23.8029L47.4368 24.0816L47.0007 24.7238L46.8825 24.8631C46.6502 25.1368 46.396 25.391 46.1224 25.6234L45.381 26.2529L44.135 25.0908L43.9146 24.8203C43.7295 24.5932 43.5619 24.3525 43.4131 24.1002L43.294 23.8982L43.1035 23.5554C42.9814 23.3357 42.8751 23.1075 42.7854 22.8727L42.6398 22.4914Z" fill="#756E7D" stroke="white" stroke-width="0.0917054"/>
<path d="M53.6351 24.5913V27.5557L51.7417 25.7179C51.5344 25.5167 51.4249 25.2352 51.4419 24.9468L51.4611 24.6203C51.474 24.4016 51.5127 24.1851 51.5765 23.9755L51.7789 23.3105C51.8827 22.9695 52.0775 22.6633 52.3425 22.4249L52.5905 22.2017L52.9362 21.9623C53.2638 21.7355 53.6527 21.614 54.0511 21.614H56.292C56.434 21.614 56.5742 21.581 56.7012 21.5174C56.7458 21.4952 56.7837 21.4617 56.8113 21.4203L56.8998 21.2876L56.92 21.247C56.9926 21.1019 57.0303 20.942 57.0303 20.7798V20.7V20.5585C57.0303 20.4368 57.002 20.3169 56.9476 20.2081L56.9141 20.1411C56.9046 20.122 56.8927 20.1041 56.8788 20.0879L56.508 19.6553H53.0475L51.0234 17.5659L56.3259 17.6269C56.5761 17.6297 56.824 17.6749 57.0591 17.7604L57.2452 17.828C57.3628 17.8708 57.4762 17.9248 57.5835 17.9892L57.7561 18.0928C57.9675 18.2196 58.1589 18.3773 58.3238 18.5606L58.5754 18.8401C58.6335 18.9046 58.6861 18.9739 58.7327 19.0471L58.9946 19.4587C59.0774 19.5889 59.1388 19.7316 59.1762 19.8814C59.2254 20.0781 59.2503 20.2802 59.2503 20.483V20.6347V21.614L59.0544 22.267L58.7279 22.8546L58.5321 23.0505L58.2709 23.2464L58.0097 23.4422L57.7486 23.5728L57.2262 23.7034L56.5733 23.7687L54.0922 23.8993L53.8631 24.0956C53.7184 24.2196 53.6351 24.4007 53.6351 24.5913Z" fill="#72BC55"/>
<path d="M54.0922 23.8993L53.8631 24.0956C53.7184 24.2196 53.6351 24.4007 53.6351 24.5913V27.5557L51.7417 25.7179M54.0922 23.8993L53.319 24.0711C53.0548 24.1298 52.8084 24.2509 52.6005 24.4241L52.5252 24.4869L52.1987 24.8787L51.9375 25.2704L51.7417 25.7179M54.0922 23.8993L56.5733 23.7687L57.2262 23.7034L57.7486 23.5728L58.0097 23.4422L58.2709 23.2464L58.5321 23.0505L58.7279 22.8546L59.0544 22.267L59.2503 21.614M59.2503 21.614L58.6938 20.5011C58.5883 20.2902 58.4228 20.1152 58.2181 19.9982V19.9982C58.1232 19.944 58.0212 19.903 57.9152 19.8765L57.5527 19.7859L57.0956 19.7206L56.508 19.6553M59.2503 21.614V20.6347V20.483C59.2503 20.2802 59.2254 20.0781 59.1762 19.8814V19.8814C59.1388 19.7316 59.0774 19.5889 58.9946 19.4587L58.7327 19.0471C58.6861 18.9739 58.6335 18.9046 58.5754 18.8401L58.3238 18.5606C58.1589 18.3773 57.9675 18.2196 57.7561 18.0928L57.5835 17.9892C57.4762 17.9248 57.3628 17.8708 57.2452 17.828L57.0591 17.7604C56.824 17.6749 56.5761 17.6297 56.3259 17.6269L51.0234 17.5659L53.0475 19.6553H56.508M56.508 19.6553L56.8788 20.0879C56.8927 20.1041 56.9046 20.122 56.9141 20.1411L56.9476 20.2081C57.002 20.3169 57.0303 20.4368 57.0303 20.5585V20.7V20.7798C57.0303 20.942 56.9926 21.1019 56.92 21.247L56.8998 21.2876L56.8113 21.4203C56.7837 21.4617 56.7458 21.4952 56.7012 21.5174V21.5174C56.5742 21.581 56.434 21.614 56.292 21.614H54.0511C53.6527 21.614 53.2638 21.7355 52.9362 21.9623L52.5905 22.2017L52.3425 22.4249C52.0775 22.6633 51.8827 22.9695 51.7789 23.3105L51.5765 23.9755C51.5127 24.1851 51.474 24.4016 51.4611 24.6203L51.4419 24.9468C51.4249 25.2352 51.5344 25.5167 51.7417 25.7179V25.7179" stroke="white" stroke-width="0.137858"/>
<path d="M7.51073 37.927L10.2561 35.9004L11.7688 37.1163L12.6093 37.775L12.7774 37.927L12.8334 38.0283L12.8663 38.0879C12.8817 38.1156 12.8937 38.145 12.9021 38.1756L12.9454 38.3323V38.4843L12.8894 38.6869L12.7774 38.8389L12.5532 39.0416L11.993 39.4976L10.8724 40.3589L9.63979 41.0682L8.91142 41.3215L8.18306 41.4735H7.4547L6.67031 41.3215L5.94195 41.0175L5.15755 40.5615L3.70083 39.5482L3.08452 38.9909L2.46821 38.3829L2.2441 38.1296L1.96396 37.775L1.57177 37.015L1.34766 36.3564V35.799L1.45971 35.0897L1.68382 34.4311L2.07602 33.7725L2.52424 33.1645L3.58877 32.2019L4.6533 31.3912L5.21358 31.0366L5.77386 30.7326L6.33414 30.4793L6.95045 30.2766L7.56675 30.1753H8.18306L8.96745 30.3273L9.69582 30.6313L10.9845 31.3912L12.161 32.2525L12.6744 32.7167C12.7055 32.7449 12.7331 32.7769 12.7563 32.8119L12.8438 32.9437C12.8739 32.9891 12.8945 33.0401 12.9044 33.0937L12.9258 33.21C12.9385 33.2788 12.9269 33.35 12.893 33.4113L12.8334 33.5191L12.6653 33.7218L12.3291 34.0258L11.6008 34.5831L10.2561 35.7484L7.51073 33.6205L7.23059 33.5698H6.95045L6.67031 33.6205L6.39017 33.7725L6.18862 33.9547C6.17361 33.9683 6.16001 33.9833 6.14801 33.9996L6.054 34.1271L5.94195 34.3298L5.88592 34.5831L5.91367 37.319L6.22208 37.6736L6.4462 37.8256L6.67031 37.927L7.11853 37.9776L7.51073 37.927Z" fill="#102D42"/>
<path d="M7.51073 33.6205L10.2561 35.7484L11.6008 34.5831L12.3291 34.0258L12.6653 33.7218L12.8334 33.5191L12.893 33.4113C12.9269 33.35 12.9385 33.2788 12.9258 33.21L12.9044 33.0937C12.8945 33.0401 12.8739 32.9891 12.8438 32.9437L12.7563 32.812C12.7331 32.7769 12.7055 32.7449 12.6744 32.7167L12.161 32.2525L10.9845 31.3912L9.69582 30.6313L8.96745 30.3273L8.18306 30.1753H7.56675L6.95045 30.2766L6.33414 30.4793L5.77386 30.7326L5.21358 31.0366L4.6533 31.3912L3.58877 32.2019M7.51073 33.6205L5.98213 32.3863C5.95545 32.3648 5.92613 32.3467 5.89489 32.3326L5.71783 32.2525L5.43769 32.1512L4.9293 32.0133C4.89486 32.0039 4.85934 31.9992 4.82365 31.9992H4.82139H4.47423C4.4443 31.9992 4.41446 32.0025 4.38526 32.0091L4.20508 32.0499L3.58877 32.2019M7.51073 33.6205L7.23059 33.5698H6.95045L6.67031 33.6205L6.39017 33.7725L6.18862 33.9547C6.17361 33.9683 6.16001 33.9833 6.14801 33.9996L6.054 34.1271L5.94195 34.3298L5.88592 34.5831L5.91367 37.319M5.91367 37.319L5.91393 38.7883L5.93952 39.9916C5.94112 40.0666 5.95943 40.1403 5.99314 40.2074L6.17236 40.5639C6.20531 40.6295 6.24827 40.6895 6.2997 40.7418L6.56463 41.0113C6.63448 41.0824 6.71688 41.1399 6.80767 41.1809L7.4547 41.4735M5.91367 37.319L6.22208 37.6736L6.4462 37.8256L6.67031 37.927L7.11853 37.9776L7.51073 37.927L10.2561 35.9004L11.7688 37.1163L12.6093 37.775L12.7774 37.927L12.8334 38.0283L12.8663 38.0879C12.8817 38.1156 12.8937 38.145 12.9021 38.1756L12.9454 38.3323V38.4843L12.8894 38.6869L12.7774 38.8389L12.5532 39.0416L11.993 39.4976L10.8724 40.3589L9.63979 41.0682L8.91142 41.3215L8.18306 41.4735H7.4547M3.58877 32.2019L2.52424 33.1645L2.07602 33.7725L1.68382 34.4311L1.45971 35.0897L1.34766 35.799V36.3564L1.57177 37.015L1.96396 37.775L2.2441 38.1296L2.46821 38.3829L3.08452 38.9909L3.70083 39.5482L5.15755 40.5615L5.94195 41.0175L6.67031 41.3215L7.4547 41.4735" stroke="white" stroke-width="0.100877" stroke-linecap="round"/>
<path d="M56.2898 37.5079V41.3986H53.3717V38.9295V36.2465C53.3717 36.0481 53.4505 35.8578 53.5908 35.7175L53.6186 35.6897C53.6534 35.6549 53.6916 35.6236 53.7326 35.5962L54.0365 35.3936C54.0919 35.3567 54.1519 35.3274 54.215 35.3063L54.5132 35.207C54.5502 35.1946 54.5882 35.1852 54.6268 35.1787L55.0178 35.1136L59.9007 34.8949C59.9865 34.8911 60.0706 34.8692 60.1474 34.8308C60.2661 34.7715 60.3622 34.6753 60.4216 34.5567L60.4798 34.4402L60.5505 34.2989C60.6024 34.195 60.6295 34.0804 60.6295 33.9642V33.8416V33.6864C60.6295 33.5912 60.6113 33.4969 60.5759 33.4085L60.5577 33.363C60.5068 33.2356 60.4218 33.1246 60.312 33.0423L59.8812 32.7193H55.3171L53.2969 30.1753H60.37C60.4428 30.1753 60.5153 30.1859 60.585 30.2068L61.228 30.3998L61.8241 30.6647C61.8755 30.6875 61.9242 30.7161 61.9692 30.7498L62.4343 31.0987C62.478 31.1315 62.5179 31.1689 62.5535 31.2103L62.949 31.6717L63.2833 32.2067C63.3098 32.249 63.3319 32.2938 63.3494 32.3406L63.5166 32.7864C63.5372 32.8412 63.5512 32.8982 63.5585 32.9563L63.6224 33.4675V34.1409L63.4727 34.7395L63.3979 34.9639L63.2705 35.2824C63.2557 35.3194 63.2379 35.3552 63.2174 35.3894L62.7993 36.0863L62.552 36.3955C62.5174 36.4386 62.4783 36.4778 62.4351 36.5123L62.1761 36.7195C62.1427 36.7462 62.1071 36.77 62.0696 36.7907L61.3029 37.213L64.8943 41.4735H61.5273L58.1603 37.3979L56.2898 37.5079Z" fill="#102D42"/>
<path d="M56.2898 37.5079V41.3986H53.3717V38.9295M56.2898 37.5079L58.1603 37.3979M56.2898 37.5079L55.3919 37.5827L55.0227 37.6442C54.9697 37.6531 54.9178 37.6676 54.8679 37.6876L54.6245 37.7849C54.5875 37.7997 54.5517 37.8175 54.5174 37.838L54.2737 37.9843C54.2213 38.0157 54.1729 38.0535 54.1296 38.0968L53.8955 38.3309L53.3717 38.9295M59.8812 32.7193H55.3171L53.2969 30.1753H60.37C60.4428 30.1753 60.5153 30.1859 60.585 30.2068L61.228 30.3998L61.8241 30.6647C61.8755 30.6875 61.9242 30.7161 61.9692 30.7498L62.4343 31.0987C62.478 31.1315 62.5179 31.1689 62.5535 31.2103L62.949 31.6717L63.2833 32.2067C63.3098 32.249 63.3319 32.2938 63.3494 32.3406L63.5166 32.7864C63.5372 32.8412 63.5512 32.8982 63.5585 32.9563L63.6224 33.4675V34.1409L63.4727 34.7395M59.8812 32.7193L60.312 33.0423C60.4218 33.1246 60.5068 33.2356 60.5577 33.363L60.5759 33.4085C60.6113 33.4969 60.6295 33.5912 60.6295 33.6864V33.8416V33.9642C60.6295 34.0804 60.6024 34.195 60.5505 34.2989L60.4798 34.4402L60.4216 34.5567C60.3622 34.6753 60.2661 34.7715 60.1474 34.8308V34.8308C60.0706 34.8692 59.9865 34.8911 59.9007 34.8949L55.0178 35.1136L54.6268 35.1787C54.5882 35.1852 54.5502 35.1946 54.5132 35.207L54.215 35.3063C54.1519 35.3274 54.0919 35.3567 54.0365 35.3936L53.7326 35.5962C53.6916 35.6236 53.6534 35.6549 53.6186 35.6897L53.5908 35.7175C53.4505 35.8578 53.3717 36.0481 53.3717 36.2465V38.9295M59.8812 32.7193H60.4703C60.5264 32.7193 60.5822 32.7255 60.6369 32.738L61.3418 32.899L61.7453 33.0503L62.3001 33.3025L62.5662 33.4545C62.6239 33.4875 62.677 33.528 62.724 33.5751L63.0567 33.9077L63.2412 34.123C63.3188 34.2135 63.3737 34.3214 63.4012 34.4374L63.4727 34.7395M61.3029 37.213L64.8943 41.4735H61.5273L58.1603 37.3979M61.3029 37.213L61.1256 37.299C61.0449 37.3382 60.9578 37.3625 60.8686 37.3709L60.5799 37.3979L59.7316 37.4331L58.1603 37.3979M61.3029 37.213L62.0696 36.7907C62.1071 36.77 62.1427 36.7462 62.1761 36.7195L62.4351 36.5123C62.4783 36.4778 62.5174 36.4386 62.552 36.3955L62.7993 36.0863L63.2174 35.3894C63.2379 35.3552 63.2557 35.3194 63.2705 35.2824L63.3979 34.9639L63.4727 34.7395" stroke="white" stroke-width="0.149645"/>
<path d="M50.5476 32.7888L44.2395 32.9282L43.6462 33.027C43.474 33.0557 43.3056 33.1036 43.1441 33.1697L42.6059 33.3898L41.5405 34.0291V33.3898L41.5694 33.1438C41.5973 32.9066 41.6593 32.6746 41.7534 32.4551L41.872 32.1782C41.9114 32.0865 41.959 31.9986 42.0143 31.9156L42.1926 31.6482C42.3019 31.4842 42.4321 31.3351 42.5799 31.2047L42.7901 31.0192C42.9032 30.9194 43.0323 30.8393 43.172 30.7821L43.5789 30.6156C43.6868 30.5715 43.8022 30.5482 43.9188 30.547L50.2846 30.4799C50.4172 30.4785 50.546 30.5235 50.6489 30.6071L50.9063 30.8163C51.0059 30.8971 51.084 31.0013 51.1337 31.1195L51.2366 31.3637C51.3049 31.5259 51.3164 31.7065 51.2693 31.876L51.2529 31.9352C51.1948 32.1443 51.0872 32.3362 50.9391 32.4948L50.749 32.6986C50.6967 32.7546 50.6241 32.7871 50.5476 32.7888Z" fill="#102D42"/>
<path d="M48.0277 41.0961H44.8998C44.6494 41.0961 44.3994 41.0754 44.1525 41.0343L43.8843 40.9896L43.4614 40.8403C43.3413 40.7979 43.2262 40.7422 43.1185 40.6741L42.8934 40.5319C42.7025 40.4114 42.5274 40.2673 42.3724 40.1032L42.139 39.856C42.0483 39.7599 41.9721 39.6511 41.913 39.5329L41.7281 39.163C41.6038 38.9144 41.5197 38.6477 41.479 38.3728L41.4224 37.9907C41.4065 37.8832 41.4023 37.7742 41.4101 37.6658L41.4158 37.5856C41.4279 37.4166 41.4531 37.2488 41.4912 37.0838L41.5405 36.8701L41.6825 36.4439L41.8956 36.0533L41.9656 35.9396C42.1074 35.7091 42.285 35.5026 42.4916 35.3277L42.6414 35.201L43.1386 34.8459L43.4436 34.7014C43.6871 34.586 43.9529 34.5254 44.2224 34.5236L46.6011 34.5085L48.9135 34.4938C49.2186 34.4918 49.5126 34.6076 49.7344 34.8171L49.7741 34.8546C49.9387 35.0101 50.0472 35.2158 50.0825 35.4395C50.1167 35.6559 50.0967 35.8774 50.0243 36.0842L49.9781 36.2164C49.9176 36.3891 49.8157 36.5444 49.6812 36.6685C49.5161 36.8209 49.2995 36.9056 49.0747 36.9056H44.5236L44.2342 37.2172C44.1207 37.3395 44.0346 37.4847 43.9818 37.6431L43.9545 37.725C43.9096 37.8598 43.92 38.0069 43.9836 38.1339L44.022 38.2108C44.072 38.3107 44.1377 38.4019 44.2166 38.4809C44.3449 38.6092 44.519 38.6812 44.7004 38.6812H47.7117C47.9913 38.6812 48.2611 38.7843 48.4694 38.9708L48.5208 39.0167C48.7156 39.191 48.8497 39.4229 48.9035 39.6787L48.9121 39.7196C48.9455 39.8779 48.9455 40.0415 48.9121 40.1998L48.8995 40.26C48.8482 40.5036 48.7227 40.7254 48.5402 40.8949C48.4009 41.0242 48.2178 41.0961 48.0277 41.0961Z" fill="#102D42"/>
<path d="M44.5236 36.9056H49.0747C49.2995 36.9056 49.5161 36.8209 49.6812 36.6685V36.6685C49.8157 36.5444 49.9176 36.3891 49.9781 36.2164L50.0243 36.0842C50.0967 35.8774 50.1167 35.6559 50.0825 35.4395V35.4395C50.0472 35.2158 49.9387 35.0101 49.7741 34.8546L49.7344 34.8171C49.5126 34.6076 49.2186 34.4918 48.9135 34.4938L46.6011 34.5085L44.2224 34.5236C43.9529 34.5254 43.6871 34.586 43.4436 34.7014L43.1386 34.8459L42.6414 35.201L42.4916 35.3277C42.285 35.5026 42.1074 35.7091 41.9656 35.9396L41.8956 36.0533L41.6825 36.4439L41.5405 36.8701L41.4912 37.0838C41.4531 37.2488 41.4279 37.4166 41.4158 37.5856L41.4101 37.6658C41.4023 37.7742 41.4065 37.8832 41.4224 37.9907L41.479 38.3728C41.5197 38.6477 41.6038 38.9144 41.7281 39.163L41.913 39.5329C41.9721 39.6511 42.0483 39.7599 42.139 39.856L42.3724 40.1032C42.5274 40.2673 42.7025 40.4114 42.8934 40.5319L43.1185 40.6741C43.2262 40.7422 43.3413 40.7979 43.4614 40.8403L43.8843 40.9896M44.5236 36.9056L44.073 37.0858C43.6701 37.247 43.3165 37.5107 43.0472 37.8509L42.9702 37.9481C42.8478 38.1027 42.768 38.2867 42.7388 38.4816V38.4816C42.6977 38.7555 42.6943 39.0336 42.7287 39.3084L42.7398 39.3975C42.7682 39.6249 42.8648 39.8384 43.0167 40.01L43.8843 40.9896M44.5236 36.9056L44.2342 37.2172C44.1207 37.3395 44.0346 37.4847 43.9818 37.6431L43.9545 37.725C43.9096 37.8598 43.92 38.0069 43.9836 38.1339L44.022 38.2108C44.072 38.3107 44.1377 38.4019 44.2166 38.4809V38.4809C44.3449 38.6092 44.519 38.6812 44.7004 38.6812H47.7117C47.9913 38.6812 48.2611 38.7843 48.4694 38.9708L48.5208 39.0167C48.7156 39.191 48.8497 39.4229 48.9035 39.6787L48.9121 39.7196C48.9455 39.8779 48.9455 40.0415 48.9121 40.1998L48.8995 40.26C48.8482 40.5036 48.7227 40.7254 48.5402 40.8949V40.8949C48.4009 41.0242 48.2178 41.0961 48.0277 41.0961H44.8998C44.6494 41.0961 44.3994 41.0754 44.1525 41.0343L43.8843 40.9896M41.5405 34.0291V33.3898L41.5694 33.1438C41.5973 32.9066 41.6593 32.6746 41.7534 32.4551L41.872 32.1782C41.9114 32.0865 41.959 31.9986 42.0143 31.9156L42.1926 31.6482C42.3019 31.4842 42.4321 31.3351 42.5799 31.2047L42.7901 31.0192C42.9032 30.9194 43.0323 30.8393 43.172 30.7821L43.5789 30.6156C43.6868 30.5715 43.8022 30.5482 43.9188 30.547L50.2846 30.4799C50.4172 30.4785 50.546 30.5235 50.6489 30.6071L50.9063 30.8163C51.0059 30.8971 51.084 31.0013 51.1337 31.1195L51.2366 31.3637C51.3049 31.5259 51.3164 31.7065 51.2693 31.876L51.2529 31.9352C51.1948 32.1443 51.0872 32.3362 50.9391 32.4948L50.749 32.6986C50.6967 32.7546 50.6241 32.7871 50.5476 32.7888L44.2395 32.9282L43.6462 33.027C43.474 33.0557 43.3056 33.1036 43.1441 33.1697L42.6059 33.3898L41.5405 34.0291Z" stroke="white" stroke-width="0.112717"/>
<path d="M75.1909 30.8722L73.7367 33.702L72.2824 33.1255L71.3798 32.9159L70.9284 32.8635L70.7269 32.8899C70.6024 32.9061 70.4946 32.9843 70.4404 33.0975C70.3985 33.185 70.3768 33.2807 70.3768 33.3776V33.702L72.9312 34.7084C73.2645 34.8398 73.5698 35.0334 73.8308 35.2788L74.6271 36.0277C74.8342 36.2225 75.0054 36.4522 75.1328 36.7064L75.2993 37.0386C75.4259 37.2911 75.4918 37.5697 75.4918 37.8522V38.4041C75.4918 38.8277 75.3998 39.2463 75.2221 39.6309L75.1163 39.86C74.9023 40.3232 74.5709 40.7223 74.1551 41.0178L73.5361 41.4577L72.3373 41.7918C72.1345 41.8483 71.9249 41.8769 71.7144 41.8769H70.628C70.3611 41.8769 70.0949 41.8475 69.8345 41.7892L69.0716 41.6183C68.9056 41.5812 68.7428 41.5313 68.5844 41.4693L66.8164 40.7764L68.2707 37.7894L70.0258 38.5231L71.3296 38.8375H71.7809L72.0013 38.7799C72.1175 38.7496 72.218 38.6765 72.2826 38.5752C72.346 38.4758 72.362 38.3533 72.3261 38.241L72.2323 37.9467L70.0258 36.8986L68.5134 36.1297C68.2868 36.0145 68.0839 35.8575 67.9156 35.6669L67.5686 35.2741L67.2386 34.6994C67.1582 34.5593 67.0992 34.4079 67.0638 34.2503L67.0517 34.1966C66.9622 33.7992 66.9319 33.3907 66.9618 32.9844L66.9816 32.7157C67.0049 32.3991 67.0991 32.0917 67.2572 31.8164L67.4125 31.5459C67.549 31.3081 67.7249 31.0952 67.9328 30.9164L68.4712 30.453L69.6028 30.0307C69.7838 29.9631 69.9725 29.9184 70.1646 29.8977L70.4948 29.862C71.0497 29.802 71.6095 29.802 72.1644 29.862L72.3818 29.8855C72.6494 29.9144 72.9144 29.9643 73.1742 30.0347L73.4792 30.1173C73.9167 30.2359 74.3388 30.4057 74.7364 30.6234L75.1909 30.8722Z" fill="#102D42"/>
<path d="M70.3768 33.702L72.9312 34.7084C73.2645 34.8398 73.5698 35.0334 73.8308 35.2788L74.6271 36.0277C74.8342 36.2225 75.0054 36.4522 75.1328 36.7064L75.2993 37.0386C75.4259 37.2911 75.4918 37.5697 75.4918 37.8522V38.4041C75.4918 38.8277 75.3998 39.2463 75.2221 39.6309L75.1163 39.86C74.9023 40.3232 74.5709 40.7223 74.1551 41.0178L73.5361 41.4577M70.3768 33.702L69.8252 33.3876L69.2234 32.9159L68.6783 32.4222C68.5409 32.2977 68.4207 32.1555 68.321 31.9992V31.9992C68.2226 31.845 68.1704 31.6659 68.1704 31.4829V31.4407C68.1704 31.2729 68.2031 31.1068 68.2668 30.9516L68.4712 30.453M70.3768 33.702V33.3776C70.3768 33.2807 70.3985 33.185 70.4404 33.0975V33.0975C70.4946 32.9843 70.6024 32.9061 70.7269 32.8899L70.9284 32.8635L71.3798 32.9159L72.2824 33.1255L73.7367 33.702L75.1909 30.8722L74.7364 30.6234C74.3388 30.4057 73.9167 30.2359 73.4792 30.1173L73.1742 30.0347C72.9144 29.9643 72.6494 29.9144 72.3818 29.8855L72.1644 29.862C71.6095 29.802 71.0497 29.802 70.4948 29.862L70.1646 29.8977C69.9725 29.9184 69.7838 29.9631 69.6028 30.0307L68.4712 30.453M73.5361 41.4577L72.3373 41.7918C72.1345 41.8483 71.9249 41.8769 71.7144 41.8769H70.628C70.3611 41.8769 70.0949 41.8475 69.8345 41.7892L69.0716 41.6183C68.9056 41.5812 68.7428 41.5313 68.5844 41.4693L66.8164 40.7764L68.2707 37.7894L70.0258 38.5231L71.3296 38.8375H71.7809L72.0013 38.7799C72.1175 38.7496 72.218 38.6765 72.2826 38.5752V38.5752C72.346 38.4758 72.362 38.3533 72.3261 38.241L72.2323 37.9467M73.5361 41.4577L73.7367 40.9337L73.8331 40.6918C73.935 40.4361 73.9874 40.1634 73.9874 39.8882V39.8882C73.9874 39.7836 73.959 39.681 73.9054 39.5912L73.7367 39.3091L73.3355 38.8375V38.8375C73.1029 38.5598 72.8281 38.3203 72.5212 38.1278L72.2323 37.9467M72.2323 37.9467L70.0258 36.8986L68.5134 36.1297C68.2868 36.0145 68.0839 35.8575 67.9156 35.6669L67.5686 35.2741L67.2386 34.6994C67.1582 34.5593 67.0992 34.4079 67.0638 34.2503L67.0517 34.1966C66.9622 33.7992 66.9319 33.3907 66.9618 32.9844L66.9816 32.7157C67.0049 32.3991 67.0991 32.0917 67.2572 31.8164L67.4125 31.5459C67.549 31.3081 67.7249 31.0952 67.9328 30.9164L68.4712 30.453" stroke="white" stroke-width="0.112717"/>
<path d="M27.7773 38.0308V30.5789H34.0015L34.662 30.7027C34.8038 30.7293 34.943 30.7681 35.0781 30.8188C35.2334 30.877 35.3816 30.9529 35.5196 31.0449L35.6395 31.1248L36.3485 31.6473C36.567 31.8082 36.7707 31.9883 36.9573 32.1853L37.1441 32.3825C37.4854 32.7427 37.7644 33.1572 37.9698 33.6089L38.0495 33.7844C38.1532 34.0125 38.2304 34.2518 38.2795 34.4975L38.3694 34.9467L38.424 35.7111V36.2116C38.424 36.3873 38.4115 36.5627 38.3867 36.7367L38.3148 37.2398L38.2418 37.5074C38.1815 37.7286 38.0955 37.9421 37.9857 38.1434L37.8234 38.441L37.3894 39.061C37.1699 39.3745 36.9145 39.6614 36.6284 39.9157L36.5802 39.9586C36.2455 40.2561 35.8755 40.5113 35.4784 40.7184L34.9767 40.9802C34.8739 41.0338 34.7603 41.0634 34.6444 41.0666L33.7285 41.092L31.4241 41.156C31.0695 41.1659 30.7153 41.1251 30.3722 41.0348C30.0287 40.9444 29.706 40.7883 29.4218 40.5752L29.3241 40.502C29.0942 40.3295 28.8801 40.1368 28.6845 39.9261L28.5601 39.7922C28.3665 39.5837 28.1983 39.3531 28.0588 39.1051C27.8743 38.7771 27.7773 38.4071 27.7773 38.0308Z" fill="#102D42"/>
<path d="M27.7773 30.5789V38.0308C27.7773 38.4071 27.8743 38.7771 28.0588 39.1051V39.1051C28.1983 39.3531 28.3665 39.5837 28.5601 39.7922L28.6845 39.9261C28.8801 40.1368 29.0942 40.3295 29.3241 40.502L29.4218 40.5752C29.706 40.7883 30.0287 40.9444 30.3722 41.0348V41.0348C30.7153 41.1251 31.0695 41.1659 31.4241 41.156L33.7285 41.092M27.7773 30.5789H34.0015M27.7773 30.5789L27.9705 31.2135C28.0962 31.6267 28.2604 32.0272 28.4608 32.4097L28.5042 32.4926C28.6728 32.8145 28.9093 33.0959 29.1972 33.3174V33.3174C29.3775 33.4561 29.5814 33.561 29.7991 33.6269L31.2716 34.0731M34.0015 30.5789L34.9353 31.1894C35.2576 31.4002 35.5497 31.654 35.8033 31.9438V31.9438L35.9711 32.1745C36.1488 32.4189 36.2788 32.6946 36.3543 32.9872L36.4512 33.3626C36.5974 33.9292 36.5498 34.5283 36.316 35.0647L35.9524 35.8989C35.8197 36.2033 35.5977 36.4601 35.3156 36.6354L33.7285 37.622M34.0015 30.5789L34.662 30.7027C34.8038 30.7293 34.943 30.7681 35.0781 30.8188V30.8188C35.2334 30.877 35.3816 30.9529 35.5196 31.0449L35.6395 31.1248L36.3485 31.6473C36.567 31.8082 36.7707 31.9883 36.9573 32.1853L37.1441 32.3825C37.4854 32.7427 37.7644 33.1572 37.9698 33.6089L38.0495 33.7844C38.1532 34.0125 38.2304 34.2518 38.2795 34.4975L38.3694 34.9467L38.424 35.7111V36.2116C38.424 36.3873 38.4115 36.5627 38.3867 36.7367L38.3148 37.2398L38.2418 37.5074C38.1815 37.7286 38.0955 37.9421 37.9857 38.1434L37.8234 38.441L37.3894 39.061C37.1699 39.3745 36.9145 39.6614 36.6284 39.9157L36.5802 39.9586C36.2455 40.2561 35.8755 40.5113 35.4784 40.7184L34.9767 40.9802C34.8739 41.0338 34.7603 41.0634 34.6444 41.0666L33.7285 41.092M31.2716 34.0731V36.794C31.2716 37.0717 31.4135 37.3301 31.6477 37.4792V37.4792C31.7943 37.5725 31.9645 37.622 32.1383 37.622H33.6193M31.2716 34.0731H32.7458H33.401L33.7285 34.1277L33.9029 34.2149C33.9322 34.2296 33.9601 34.2468 33.9863 34.2665L34.2964 34.499C34.6263 34.7465 34.8205 35.1348 34.8205 35.5473V36.3036C34.8205 36.5831 34.6868 36.8457 34.4607 37.0101L33.6193 37.622M33.6193 37.622L34.5002 38.0758C35.0301 38.3488 35.282 38.9674 35.0935 39.533V39.533L34.9198 40.1234C34.8552 40.343 34.7233 40.5367 34.5426 40.6772L34.3291 40.8433L33.7285 41.092" stroke="white" stroke-width="0.173294"/>
<path d="M31.3828 36.8422V34.073H33.408C33.6508 34.073 33.885 34.1629 34.0654 34.3253L34.6241 34.828C34.7851 34.973 34.8771 35.1795 34.8771 35.3962V35.9403C34.8771 36.2487 34.7584 36.5453 34.5457 36.7686L34.1724 37.1606C33.9251 37.4203 33.5822 37.5673 33.2236 37.5673H32.149C31.9381 37.5673 31.7358 37.4835 31.5866 37.3343C31.4561 37.2038 31.3828 37.0268 31.3828 36.8422Z" fill="#918F96" stroke="white" stroke-width="0.173294"/>
<path d="M20.9343 40.9421L20.7505 40.9711C20.1075 41.0726 19.4506 41.0418 18.8199 40.8805C18.441 40.7835 18.0754 40.6405 17.7314 40.4545L16.9312 40.022L16.5936 39.7548C16.2518 39.4841 15.9458 39.1699 15.6843 38.8211C15.5215 38.6041 15.3761 38.3739 15.2502 38.1335C15.1161 37.8774 15.0042 37.6103 14.9157 37.3351L14.728 36.751L14.631 36.2498C14.5536 35.8501 14.5262 35.4424 14.5494 35.036C14.5734 34.6171 14.6509 34.2031 14.78 33.804L14.7884 33.7778C14.9132 33.3922 15.0833 33.0226 15.2951 32.677L15.4169 32.4784C15.5737 32.2225 15.7523 31.9806 15.9505 31.7552C16.2715 31.3905 16.6416 31.0723 17.0503 30.8095L17.4301 30.5653L18.0351 30.2807L18.7096 30.0322L19.2044 29.9615L19.775 29.9258H20.2454C20.8752 29.9258 21.4993 30.046 22.0841 30.2799C22.3222 30.3751 22.5525 30.4887 22.773 30.6197L22.8068 30.6397C23.3184 30.9435 23.7768 31.3288 24.164 31.7805L24.4339 32.0955L24.4646 32.1364C24.9383 32.7679 25.3008 33.4755 25.5365 34.2289L25.6953 35.0453C25.7555 35.355 25.7768 35.6709 25.7589 35.9859C25.73 36.4906 25.6006 36.9844 25.3783 37.4383L25.2892 37.6203L25.2189 37.7637C24.9819 38.2475 24.6766 38.6986 24.3162 39.0992C23.8325 39.6366 23.242 40.0854 22.5952 40.4088C22.0739 40.6694 21.5099 40.8512 20.9343 40.9421Z" fill="#102D42" stroke="white" stroke-width="0.106495"/>
<path d="M16.8675 35.2894L16.6505 34.4016L16.6416 34.3318C16.5995 34.0011 16.6025 33.6662 16.6505 33.3362L17.462 33.0707C18.0755 32.8699 18.714 32.7554 19.3591 32.7306L20.2316 32.697L21.6552 32.8368C21.9111 32.8619 22.1633 32.9157 22.4072 32.9972L23.7404 33.4428L23.6739 34.0299C23.6459 34.2772 23.5957 34.5215 23.5238 34.7598L23.3425 35.3605L23.2093 35.7003C23.0573 36.0884 22.868 36.4608 22.6442 36.8124L22.4381 37.1361L21.9317 37.8819L21.7944 38.0436C21.5247 38.3614 21.2294 38.6567 20.9117 38.9265L20.0507 39.6575L18.6038 38.308L18.3478 37.9939C18.1329 37.7302 17.9383 37.4506 17.7655 37.1576L17.6271 36.923L17.406 36.525C17.2642 36.2698 17.1408 36.0049 17.0366 35.7322L16.8675 35.2894Z" fill="#6C6B80" stroke="white" stroke-width="0.106495"/>
<path d="M39.8325 44.6003V55.827M39.8325 66.087V62.8901M39.8325 55.827L41.9409 54.9352C43.0155 54.4807 43.7331 53.449 43.7853 52.2834L43.923 49.2099M39.8325 55.827L37.5877 54.9454C36.4295 54.4905 35.6677 53.3729 35.6677 52.1285V49.2099M39.8325 55.827V62.8901M39.8325 62.8901L38.7506 62.6109C37.9406 62.402 37.1716 62.0584 36.4755 61.5945L35.7421 61.1057M39.8325 62.8901L41.2192 62.494C41.6807 62.3622 42.121 62.1652 42.5268 61.909L43.328 61.4031M43.328 61.4031L44.1263 58.3336C44.2322 57.9266 44.5268 57.5951 44.9185 57.4421L48.8542 55.9052C48.9338 55.8741 49.0136 55.95 48.9866 56.0311L47.6095 60.1611C47.4477 60.6463 47.0186 60.9932 46.5102 61.0496L43.328 61.4031ZM35.7421 61.1057L32.6663 60.9918C32.1043 60.971 31.6181 60.5942 31.4578 60.0551L30.1464 55.6453C30.1229 55.5662 30.199 55.4939 30.2767 55.5214L35.0326 57.2065C35.5846 57.4021 35.94 57.94 35.9035 58.5245L35.7421 61.1057Z" stroke="url(#paint0_linear_654_374)" stroke-width="1.41227" stroke-linecap="round"/>
<path d="M18.7422 53.6289H21.6676" stroke="#84D658" stroke-width="1.41227" stroke-linecap="round"/>
<ellipse cx="16.6749" cy="53.6288" rx="0.706136" ry="0.655698" fill="#67C442"/>
<ellipse cx="16.574" cy="51.3087" rx="0.605259" ry="0.554821" fill="#67C442"/>
<ellipse cx="18.5896" cy="51.1071" rx="0.605259" ry="0.554821" fill="#67C442"/>
<ellipse cx="18.5896" cy="56.151" rx="0.605259" ry="0.554821" fill="#67C442"/>
<ellipse cx="16.574" cy="56.151" rx="0.605259" ry="0.554821" fill="#67C442"/>
<ellipse cx="16.574" cy="56.151" rx="0.605259" ry="0.554821" fill="#67C442"/>
<path d="M13.5938 22.5591H16.5192" stroke="#84D658" stroke-width="1.41227" stroke-linecap="round"/>
<ellipse cx="11.5264" cy="22.559" rx="0.706136" ry="0.655698" fill="#67C442"/>
<ellipse cx="11.4256" cy="20.2389" rx="0.605259" ry="0.554821" fill="#67C442"/>
<ellipse cx="13.4412" cy="20.0372" rx="0.605259" ry="0.554821" fill="#67C442"/>
<ellipse cx="13.4412" cy="25.0812" rx="0.605259" ry="0.554821" fill="#67C442"/>
<ellipse cx="11.4256" cy="25.0812" rx="0.605259" ry="0.554821" fill="#67C442"/>
<ellipse cx="11.4256" cy="25.0812" rx="0.605259" ry="0.554821" fill="#67C442"/>
<path d="M60.4102 53.6292H57.4847" stroke="#84D658" stroke-width="1.41227" stroke-linecap="round"/>
<ellipse cx="62.4775" cy="53.6292" rx="0.706136" ry="0.655698" transform="rotate(180 62.4775 53.6292)" fill="#67C442"/>
<ellipse cx="62.5783" cy="55.9493" rx="0.605259" ry="0.554821" transform="rotate(180 62.5783 55.9493)" fill="#67C442"/>
<ellipse cx="60.5627" cy="56.151" rx="0.605259" ry="0.554821" transform="rotate(180 60.5627 56.151)" fill="#67C442"/>
<ellipse cx="60.5627" cy="51.107" rx="0.605259" ry="0.554821" transform="rotate(180 60.5627 51.107)" fill="#67C442"/>
<ellipse cx="62.5783" cy="51.107" rx="0.605259" ry="0.554821" transform="rotate(180 62.5783 51.107)" fill="#67C442"/>
<ellipse cx="62.5783" cy="51.107" rx="0.605259" ry="0.554821" transform="rotate(180 62.5783 51.107)" fill="#67C442"/>
<path d="M66.1055 22.0544H63.18" stroke="#84D658" stroke-width="1.41227" stroke-linecap="round"/>
<ellipse cx="68.1728" cy="22.0545" rx="0.706136" ry="0.655698" transform="rotate(180 68.1728 22.0545)" fill="#67C442"/>
<ellipse cx="68.2736" cy="24.3746" rx="0.605259" ry="0.554821" transform="rotate(180 68.2736 24.3746)" fill="#67C442"/>
<ellipse cx="66.258" cy="24.5763" rx="0.605259" ry="0.554821" transform="rotate(180 66.258 24.5763)" fill="#67C442"/>
<ellipse cx="66.258" cy="19.5323" rx="0.605259" ry="0.554821" transform="rotate(180 66.258 19.5323)" fill="#67C442"/>
<ellipse cx="68.2736" cy="19.5323" rx="0.605259" ry="0.554821" transform="rotate(180 68.2736 19.5323)" fill="#67C442"/>
<ellipse cx="68.2736" cy="19.5323" rx="0.605259" ry="0.554821" transform="rotate(180 68.2736 19.5323)" fill="#67C442"/>
<path d="M39.5234 9.0918V6.16638" stroke="#84D658" stroke-width="1.41227" stroke-linecap="round"/>
<ellipse cx="39.5268" cy="11.1598" rx="0.706136" ry="0.655698" transform="rotate(-90 39.5268 11.1598)" fill="#67C442"/>
<ellipse cx="37.2072" cy="11.2607" rx="0.605259" ry="0.554821" transform="rotate(-90 37.2072 11.2607)" fill="#67C442"/>
<ellipse cx="37.004" cy="9.24313" rx="0.605259" ry="0.554821" transform="rotate(-90 37.004 9.24313)" fill="#67C442"/>
<ellipse cx="42.047" cy="9.24313" rx="0.605259" ry="0.554821" transform="rotate(-90 42.047 9.24313)" fill="#67C442"/>
<ellipse cx="42.047" cy="11.2607" rx="0.605259" ry="0.554821" transform="rotate(-90 42.047 11.2607)" fill="#67C442"/>
<ellipse cx="42.047" cy="11.2607" rx="0.605259" ry="0.554821" transform="rotate(-90 42.047 11.2607)" fill="#67C442"/>
<defs>
<linearGradient id="paint0_linear_654_374" x1="39.5351" y1="44.6003" x2="39.5351" y2="65.7153" gradientUnits="userSpaceOnUse">
<stop stop-color="#84D658"/>
<stop offset="0.64" stop-color="#255A62"/>
</linearGradient>
</defs>
</svg>
