<svg width="280" height="269" viewBox="0 0 280 269" fill="none" xmlns="http://www.w3.org/2000/svg">
<g filter="url(#filter0_d_644_8120)">
<g clip-path="url(#clip0_644_8120)">
<rect x="4" width="272" height="261" rx="10" fill="white"/>
<rect x="4" y="-4" width="110" height="265" fill="#E3D068"/>
<path d="M24 91.8126C27.2499 80.6113 46.2415 65.8565 67.0003 72.778C89.3188 80.2195 96.2306 114.883 75.626 126.238C70.6588 128.975 65.4552 130.112 61.0007 130.176L61.8519 172.682H54.0741L53.037 128.896V121.301C54.8526 121.412 58.2372 121.323 60.8148 120.897C66.2327 120.001 72.3852 116.967 76.8659 111.447C80.9213 106.451 82.3534 99.5484 80.2142 93.4795C78.0618 87.3733 73.9727 82.5978 72.2222 81.0894C69.6296 78.8555 64.4444 74.3876 51.4815 74.3876C40.0741 74.8344 28.4938 86.0043 24 91.8126Z" fill="white"/>
<ellipse cx="58.7407" cy="185.192" rx="6.74074" ry="5.80828" fill="white"/>
<g filter="url(#filter1_i_644_8120)">
<path d="M141.848 97V81.352H146.264C147.864 81.352 149.248 81.624 150.416 82.168C151.6 82.712 152.512 83.56 153.152 84.712C153.792 85.848 154.112 87.312 154.112 89.104C154.112 90.896 153.792 92.376 153.152 93.544C152.512 94.712 151.616 95.584 150.464 96.16C149.328 96.72 148 97 146.48 97H141.848ZM145.376 94.144H146.048C146.944 94.144 147.72 93.984 148.376 93.664C149.048 93.344 149.568 92.816 149.936 92.08C150.304 91.344 150.488 90.352 150.488 89.104C150.488 87.856 150.304 86.88 149.936 86.176C149.568 85.456 149.048 84.952 148.376 84.664C147.72 84.36 146.944 84.208 146.048 84.208H145.376V94.144ZM156.794 97V85.096H160.322V97H156.794ZM158.546 83.344C157.954 83.344 157.474 83.176 157.106 82.84C156.738 82.504 156.554 82.056 156.554 81.496C156.554 80.936 156.738 80.488 157.106 80.152C157.474 79.816 157.954 79.648 158.546 79.648C159.138 79.648 159.618 79.816 159.986 80.152C160.354 80.488 160.538 80.936 160.538 81.496C160.538 82.056 160.354 82.504 159.986 82.84C159.618 83.176 159.138 83.344 158.546 83.344ZM166.931 97.288C166.147 97.288 165.339 97.136 164.507 96.832C163.675 96.528 162.963 96.088 162.371 95.512L163.859 93.52C164.403 93.952 164.939 94.256 165.467 94.432C166.011 94.592 166.531 94.672 167.027 94.672C167.555 94.672 167.939 94.584 168.179 94.408C168.419 94.216 168.539 93.968 168.539 93.664C168.539 93.392 168.427 93.168 168.203 92.992C167.995 92.816 167.715 92.664 167.363 92.536C167.027 92.392 166.643 92.24 166.211 92.08C165.635 91.872 165.107 91.608 164.627 91.288C164.147 90.968 163.755 90.584 163.451 90.136C163.163 89.688 163.019 89.152 163.019 88.528C163.019 87.408 163.435 86.512 164.267 85.84C165.115 85.152 166.219 84.808 167.579 84.808C168.443 84.808 169.227 84.952 169.931 85.24C170.651 85.512 171.267 85.872 171.779 86.32L170.267 88.288C169.835 87.984 169.403 87.768 168.971 87.64C168.539 87.496 168.115 87.424 167.699 87.424C167.235 87.424 166.891 87.512 166.667 87.688C166.443 87.864 166.331 88.088 166.331 88.36C166.331 88.584 166.411 88.776 166.571 88.936C166.731 89.096 166.971 89.248 167.291 89.392C167.627 89.52 168.043 89.664 168.539 89.824C169.147 90.032 169.699 90.296 170.195 90.616C170.707 90.92 171.107 91.304 171.395 91.768C171.683 92.232 171.827 92.792 171.827 93.448C171.827 94.168 171.635 94.816 171.251 95.392C170.883 95.968 170.339 96.432 169.619 96.784C168.899 97.12 168.003 97.288 166.931 97.288ZM179.324 97.288C178.204 97.288 177.188 97.04 176.276 96.544C175.38 96.048 174.668 95.336 174.14 94.408C173.628 93.48 173.372 92.36 173.372 91.048C173.372 89.736 173.66 88.616 174.236 87.688C174.812 86.76 175.572 86.048 176.516 85.552C177.46 85.056 178.476 84.808 179.564 84.808C180.3 84.808 180.956 84.928 181.532 85.168C182.124 85.392 182.628 85.696 183.044 86.08L181.388 88.264C181.18 88.088 180.94 87.944 180.668 87.832C180.412 87.72 180.116 87.664 179.78 87.664C179.22 87.664 178.732 87.8 178.316 88.072C177.9 88.344 177.572 88.736 177.332 89.248C177.092 89.76 176.972 90.36 176.972 91.048C176.972 91.736 177.092 92.336 177.332 92.848C177.572 93.36 177.892 93.752 178.292 94.024C178.708 94.296 179.172 94.432 179.684 94.432C180.084 94.432 180.46 94.36 180.812 94.216C181.164 94.072 181.492 93.888 181.796 93.664L183.188 95.824C182.692 96.272 182.108 96.632 181.436 96.904C180.764 97.16 180.06 97.288 179.324 97.288ZM189.75 97.288C188.742 97.288 187.798 97.048 186.918 96.568C186.038 96.072 185.318 95.36 184.758 94.432C184.214 93.488 183.942 92.36 183.942 91.048C183.942 89.736 184.214 88.616 184.758 87.688C185.318 86.744 186.038 86.032 186.918 85.552C187.798 85.056 188.742 84.808 189.75 84.808C190.742 84.808 191.678 85.056 192.558 85.552C193.438 86.032 194.15 86.744 194.694 87.688C195.254 88.616 195.534 89.736 195.534 91.048C195.534 92.36 195.254 93.488 194.694 94.432C194.15 95.36 193.438 96.072 192.558 96.568C191.678 97.048 190.742 97.288 189.75 97.288ZM189.75 94.432C190.23 94.432 190.63 94.296 190.95 94.024C191.286 93.752 191.534 93.36 191.694 92.848C191.854 92.336 191.934 91.736 191.934 91.048C191.934 90.36 191.854 89.76 191.694 89.248C191.534 88.736 191.286 88.344 190.95 88.072C190.63 87.8 190.23 87.664 189.75 87.664C189.254 87.664 188.846 87.8 188.526 88.072C188.206 88.344 187.966 88.736 187.806 89.248C187.646 89.76 187.566 90.36 187.566 91.048C187.566 91.736 187.646 92.336 187.806 92.848C187.966 93.36 188.206 93.752 188.526 94.024C188.846 94.296 189.254 94.432 189.75 94.432ZM200.499 97L196.491 85.096H200.043L201.579 90.712C201.739 91.304 201.891 91.904 202.035 92.512C202.195 93.12 202.355 93.744 202.515 94.384H202.611C202.755 93.744 202.907 93.12 203.067 92.512C203.227 91.904 203.379 91.304 203.523 90.712L205.083 85.096H208.467L204.579 97H200.499ZM215.466 97.288C214.33 97.288 213.306 97.04 212.394 96.544C211.482 96.048 210.762 95.336 210.234 94.408C209.706 93.48 209.442 92.36 209.442 91.048C209.442 89.752 209.706 88.64 210.234 87.712C210.778 86.784 211.482 86.072 212.346 85.576C213.21 85.064 214.114 84.808 215.058 84.808C216.194 84.808 217.138 85.064 217.89 85.576C218.642 86.072 219.202 86.752 219.57 87.616C219.938 88.48 220.122 89.448 220.122 90.52C220.122 90.824 220.106 91.128 220.074 91.432C220.042 91.72 220.01 91.952 219.978 92.128H212.178L212.13 89.68H217.098C217.098 89.056 216.946 88.544 216.642 88.144C216.338 87.728 215.834 87.52 215.13 87.52C214.746 87.52 214.37 87.624 214.002 87.832C213.634 88.04 213.33 88.4 213.09 88.912C212.85 89.424 212.738 90.136 212.754 91.048C212.77 91.944 212.93 92.648 213.234 93.16C213.554 93.672 213.954 94.04 214.434 94.264C214.914 94.472 215.418 94.576 215.946 94.576C216.41 94.576 216.85 94.512 217.266 94.384C217.698 94.24 218.122 94.048 218.538 93.808L219.69 95.968C219.098 96.384 218.426 96.712 217.674 96.952C216.922 97.176 216.186 97.288 215.466 97.288ZM222.56 97V85.096H225.44L225.68 87.184H225.776C226.208 86.384 226.72 85.792 227.312 85.408C227.92 85.008 228.536 84.808 229.16 84.808C229.496 84.808 229.776 84.832 230 84.88C230.224 84.912 230.416 84.968 230.576 85.048L229.904 88.048C229.712 88 229.528 87.968 229.352 87.952C229.176 87.92 228.96 87.904 228.704 87.904C228.256 87.904 227.784 88.064 227.288 88.384C226.808 88.704 226.408 89.272 226.088 90.088V97H222.56ZM148.472 131.288C147.128 131.288 145.896 130.992 144.776 130.4C143.672 129.792 142.784 128.888 142.112 127.688C141.44 126.488 141.104 125.016 141.104 123.272C141.104 121.976 141.296 120.824 141.68 119.816C142.08 118.792 142.624 117.928 143.312 117.224C144 116.52 144.784 115.984 145.664 115.616C146.56 115.248 147.504 115.064 148.496 115.064C149.504 115.064 150.408 115.264 151.208 115.664C152.008 116.064 152.672 116.544 153.2 117.104L151.328 119.24C150.944 118.872 150.528 118.6 150.08 118.424C149.632 118.232 149.128 118.136 148.568 118.136C147.88 118.136 147.24 118.344 146.648 118.76C146.072 119.16 145.608 119.736 145.256 120.488C144.904 121.24 144.728 122.128 144.728 123.152C144.728 124.224 144.896 125.144 145.232 125.912C145.568 126.664 146.032 127.24 146.624 127.64C147.232 128.04 147.928 128.24 148.712 128.24C149.32 128.24 149.864 128.112 150.344 127.856C150.824 127.6 151.248 127.296 151.616 126.944L153.392 129.032C152.72 129.784 151.976 130.352 151.16 130.736C150.344 131.104 149.448 131.288 148.472 131.288ZM160.641 131.288C159.633 131.288 158.689 131.048 157.809 130.568C156.929 130.072 156.209 129.36 155.649 128.432C155.105 127.488 154.833 126.36 154.833 125.048C154.833 123.736 155.105 122.616 155.649 121.688C156.209 120.744 156.929 120.032 157.809 119.552C158.689 119.056 159.633 118.808 160.641 118.808C161.633 118.808 162.569 119.056 163.449 119.552C164.329 120.032 165.041 120.744 165.585 121.688C166.145 122.616 166.425 123.736 166.425 125.048C166.425 126.36 166.145 127.488 165.585 128.432C165.041 129.36 164.329 130.072 163.449 130.568C162.569 131.048 161.633 131.288 160.641 131.288ZM160.641 128.432C161.121 128.432 161.521 128.296 161.841 128.024C162.177 127.752 162.425 127.36 162.585 126.848C162.745 126.336 162.825 125.736 162.825 125.048C162.825 124.36 162.745 123.76 162.585 123.248C162.425 122.736 162.177 122.344 161.841 122.072C161.521 121.8 161.121 121.664 160.641 121.664C160.145 121.664 159.737 121.8 159.417 122.072C159.097 122.344 158.857 122.736 158.697 123.248C158.537 123.76 158.457 124.36 158.457 125.048C158.457 125.736 158.537 126.336 158.697 126.848C158.857 127.36 159.097 127.752 159.417 128.024C159.737 128.296 160.145 128.432 160.641 128.432ZM168.841 131V119.096H171.721L171.961 120.608H172.057C172.553 120.112 173.113 119.688 173.737 119.336C174.361 118.984 175.073 118.808 175.873 118.808C177.185 118.808 178.129 119.24 178.705 120.104C179.281 120.952 179.569 122.12 179.569 123.608V131H176.041V124.064C176.041 123.2 175.921 122.608 175.681 122.288C175.457 121.968 175.089 121.808 174.577 121.808C174.129 121.808 173.745 121.912 173.425 122.12C173.105 122.312 172.753 122.592 172.369 122.96V131H168.841ZM187.16 131.264C185.688 131.264 184.632 130.84 183.992 129.992C183.352 129.128 183.032 128.016 183.032 126.656V121.856H181.424V119.24L183.248 119.096L183.656 115.448H186.584V119.096H189.44V121.856H186.584V126.608C186.584 127.28 186.72 127.768 186.992 128.072C187.28 128.36 187.656 128.504 188.12 128.504C188.312 128.504 188.504 128.488 188.696 128.456C188.888 128.424 189.072 128.376 189.248 128.312L189.824 130.784C189.52 130.912 189.136 131.024 188.672 131.12C188.224 131.216 187.72 131.264 187.16 131.264ZM191.763 131V119.096H194.643L194.883 121.184H194.979C195.411 120.384 195.923 119.792 196.515 119.408C197.123 119.008 197.739 118.808 198.363 118.808C198.699 118.808 198.979 118.832 199.203 118.88C199.427 118.912 199.619 118.968 199.779 119.048L199.107 122.048C198.915 122 198.731 121.968 198.555 121.952C198.379 121.92 198.163 121.904 197.907 121.904C197.459 121.904 196.987 122.064 196.491 122.384C196.011 122.704 195.611 123.272 195.291 124.088V131H191.763ZM203.669 131.288C202.949 131.288 202.317 131.128 201.773 130.808C201.245 130.488 200.837 130.056 200.549 129.512C200.261 128.968 200.117 128.36 200.117 127.688C200.117 126.408 200.645 125.424 201.701 124.736C202.757 124.032 204.461 123.56 206.813 123.32C206.797 122.968 206.717 122.672 206.573 122.432C206.445 122.176 206.245 121.984 205.973 121.856C205.701 121.712 205.357 121.64 204.941 121.64C204.445 121.64 203.941 121.728 203.429 121.904C202.917 122.08 202.365 122.336 201.773 122.672L200.525 120.368C201.037 120.048 201.565 119.776 202.109 119.552C202.653 119.312 203.213 119.128 203.789 119C204.381 118.872 204.989 118.808 205.613 118.808C206.637 118.808 207.493 119.008 208.181 119.408C208.885 119.792 209.421 120.384 209.789 121.184C210.157 121.968 210.341 122.976 210.341 124.208V131H207.461L207.221 129.776H207.125C206.613 130.224 206.077 130.592 205.517 130.88C204.957 131.152 204.341 131.288 203.669 131.288ZM204.845 128.528C205.245 128.528 205.597 128.44 205.901 128.264C206.205 128.088 206.509 127.848 206.813 127.544V125.528C205.981 125.64 205.317 125.784 204.821 125.96C204.341 126.136 203.997 126.352 203.789 126.608C203.597 126.848 203.501 127.12 203.501 127.424C203.501 127.792 203.621 128.072 203.861 128.264C204.117 128.44 204.445 128.528 204.845 128.528ZM218.582 131.288C217.462 131.288 216.446 131.04 215.534 130.544C214.638 130.048 213.926 129.336 213.398 128.408C212.886 127.48 212.63 126.36 212.63 125.048C212.63 123.736 212.918 122.616 213.494 121.688C214.07 120.76 214.83 120.048 215.774 119.552C216.718 119.056 217.734 118.808 218.822 118.808C219.558 118.808 220.214 118.928 220.79 119.168C221.382 119.392 221.886 119.696 222.302 120.08L220.646 122.264C220.438 122.088 220.198 121.944 219.926 121.832C219.67 121.72 219.374 121.664 219.038 121.664C218.478 121.664 217.99 121.8 217.574 122.072C217.158 122.344 216.83 122.736 216.59 123.248C216.35 123.76 216.23 124.36 216.23 125.048C216.23 125.736 216.35 126.336 216.59 126.848C216.83 127.36 217.15 127.752 217.55 128.024C217.966 128.296 218.43 128.432 218.942 128.432C219.342 128.432 219.718 128.36 220.07 128.216C220.422 128.072 220.75 127.888 221.054 127.664L222.446 129.824C221.95 130.272 221.366 130.632 220.694 130.904C220.022 131.16 219.318 131.288 218.582 131.288ZM228.902 131.264C227.43 131.264 226.374 130.84 225.734 129.992C225.094 129.128 224.774 128.016 224.774 126.656V121.856H223.166V119.24L224.99 119.096L225.398 115.448H228.326V119.096H231.182V121.856H228.326V126.608C228.326 127.28 228.462 127.768 228.734 128.072C229.022 128.36 229.398 128.504 229.862 128.504C230.054 128.504 230.246 128.488 230.438 128.456C230.63 128.424 230.814 128.376 230.99 128.312L231.566 130.784C231.262 130.912 230.878 131.024 230.414 131.12C229.966 131.216 229.462 131.264 228.902 131.264ZM141.848 165V149.352H151.712V152.328H145.376V155.952H150.8V158.928H145.376V165H141.848ZM156.232 165.288C155.512 165.288 154.88 165.128 154.336 164.808C153.808 164.488 153.4 164.056 153.112 163.512C152.824 162.968 152.68 162.36 152.68 161.688C152.68 160.408 153.208 159.424 154.264 158.736C155.32 158.032 157.024 157.56 159.376 157.32C159.36 156.968 159.28 156.672 159.136 156.432C159.008 156.176 158.808 155.984 158.536 155.856C158.264 155.712 157.92 155.64 157.504 155.64C157.008 155.64 156.504 155.728 155.992 155.904C155.48 156.08 154.928 156.336 154.336 156.672L153.088 154.368C153.6 154.048 154.128 153.776 154.672 153.552C155.216 153.312 155.776 153.128 156.352 153C156.944 152.872 157.552 152.808 158.176 152.808C159.2 152.808 160.056 153.008 160.744 153.408C161.448 153.792 161.984 154.384 162.352 155.184C162.72 155.968 162.904 156.976 162.904 158.208V165H160.024L159.784 163.776H159.688C159.176 164.224 158.64 164.592 158.08 164.88C157.52 165.152 156.904 165.288 156.232 165.288ZM157.408 162.528C157.808 162.528 158.16 162.44 158.464 162.264C158.768 162.088 159.072 161.848 159.376 161.544V159.528C158.544 159.64 157.88 159.784 157.384 159.96C156.904 160.136 156.56 160.352 156.352 160.608C156.16 160.848 156.064 161.12 156.064 161.424C156.064 161.792 156.184 162.072 156.424 162.264C156.68 162.44 157.008 162.528 157.408 162.528ZM165.888 165V153.096H168.768L169.008 155.184H169.104C169.536 154.384 170.048 153.792 170.64 153.408C171.248 153.008 171.864 152.808 172.488 152.808C172.824 152.808 173.104 152.832 173.328 152.88C173.552 152.912 173.744 152.968 173.904 153.048L173.232 156.048C173.04 156 172.856 155.968 172.68 155.952C172.504 155.92 172.288 155.904 172.032 155.904C171.584 155.904 171.112 156.064 170.616 156.384C170.136 156.704 169.736 157.272 169.416 158.088V165H165.888ZM175.451 165V153.096H178.331L178.571 154.632H178.667C179.147 154.136 179.667 153.712 180.227 153.36C180.803 152.992 181.483 152.808 182.267 152.808C183.115 152.808 183.803 152.984 184.331 153.336C184.859 153.672 185.267 154.16 185.555 154.8C186.083 154.256 186.643 153.792 187.235 153.408C187.827 153.008 188.515 152.808 189.299 152.808C190.595 152.808 191.539 153.24 192.131 154.104C192.723 154.952 193.019 156.12 193.019 157.608V165H189.491V158.064C189.491 157.2 189.371 156.608 189.131 156.288C188.907 155.968 188.539 155.808 188.027 155.808C187.723 155.808 187.403 155.904 187.067 156.096C186.731 156.272 186.371 156.56 185.987 156.96V165H182.459V158.064C182.459 157.2 182.339 156.608 182.099 156.288C181.875 155.968 181.507 155.808 180.995 155.808C180.387 155.808 179.715 156.192 178.979 156.96V165H175.451ZM196.029 165V153.096H199.557V165H196.029ZM197.781 151.344C197.189 151.344 196.709 151.176 196.341 150.84C195.973 150.504 195.789 150.056 195.789 149.496C195.789 148.936 195.973 148.488 196.341 148.152C196.709 147.816 197.189 147.648 197.781 147.648C198.373 147.648 198.853 147.816 199.221 148.152C199.589 148.488 199.773 148.936 199.773 149.496C199.773 150.056 199.589 150.504 199.221 150.84C198.853 151.176 198.373 151.344 197.781 151.344ZM202.662 165V153.096H205.542L205.782 154.608H205.878C206.374 154.112 206.934 153.688 207.558 153.336C208.182 152.984 208.894 152.808 209.694 152.808C211.006 152.808 211.95 153.24 212.526 154.104C213.102 154.952 213.39 156.12 213.39 157.608V165H209.862V158.064C209.862 157.2 209.742 156.608 209.502 156.288C209.278 155.968 208.91 155.808 208.398 155.808C207.95 155.808 207.566 155.912 207.246 156.12C206.926 156.312 206.574 156.592 206.19 156.96V165H202.662ZM220.644 170.064C219.716 170.064 218.868 169.952 218.1 169.728C217.348 169.52 216.748 169.192 216.3 168.744C215.868 168.312 215.652 167.744 215.652 167.04C215.652 166.544 215.796 166.096 216.084 165.696C216.388 165.296 216.812 164.944 217.356 164.64V164.544C217.052 164.336 216.788 164.072 216.564 163.752C216.356 163.416 216.252 163.008 216.252 162.528C216.252 162.096 216.38 161.688 216.636 161.304C216.892 160.904 217.212 160.568 217.596 160.296V160.2C217.164 159.912 216.788 159.496 216.468 158.952C216.148 158.408 215.988 157.792 215.988 157.104C215.988 156.16 216.22 155.368 216.684 154.728C217.148 154.088 217.756 153.608 218.508 153.288C219.26 152.968 220.06 152.808 220.908 152.808C221.244 152.808 221.564 152.832 221.868 152.88C222.188 152.928 222.484 153 222.756 153.096H227.1V155.664H225.108V155.76C225.268 155.968 225.388 156.2 225.468 156.456C225.548 156.696 225.588 156.968 225.588 157.272C225.588 158.168 225.38 158.912 224.964 159.504C224.548 160.08 223.98 160.512 223.26 160.8C222.556 161.088 221.772 161.232 220.908 161.232C220.7 161.232 220.476 161.216 220.236 161.184C219.996 161.136 219.74 161.072 219.468 160.992C219.324 161.12 219.212 161.248 219.132 161.376C219.068 161.504 219.036 161.672 219.036 161.88C219.036 162.168 219.172 162.392 219.444 162.552C219.716 162.696 220.18 162.768 220.836 162.768H222.756C224.228 162.768 225.348 163.008 226.116 163.488C226.9 163.952 227.292 164.72 227.292 165.792C227.292 166.608 227.02 167.336 226.476 167.976C225.932 168.632 225.164 169.144 224.172 169.512C223.18 169.88 222.004 170.064 220.644 170.064ZM220.908 159.096C221.228 159.096 221.508 159.024 221.748 158.88C221.988 158.72 222.18 158.496 222.324 158.208C222.468 157.92 222.54 157.552 222.54 157.104C222.54 156.464 222.38 155.984 222.06 155.664C221.756 155.344 221.372 155.184 220.908 155.184C220.444 155.184 220.052 155.344 219.732 155.664C219.428 155.984 219.276 156.464 219.276 157.104C219.276 157.552 219.348 157.92 219.492 158.208C219.652 158.496 219.852 158.72 220.092 158.88C220.332 159.024 220.604 159.096 220.908 159.096ZM221.196 167.856C221.724 167.856 222.188 167.792 222.588 167.664C223.004 167.536 223.332 167.36 223.572 167.136C223.812 166.912 223.932 166.664 223.932 166.392C223.932 166.008 223.772 165.752 223.452 165.624C223.132 165.512 222.684 165.456 222.108 165.456H220.884C220.468 165.456 220.132 165.44 219.876 165.408C219.636 165.392 219.412 165.36 219.204 165.312C218.98 165.504 218.812 165.688 218.7 165.864C218.604 166.056 218.556 166.264 218.556 166.488C218.556 166.936 218.796 167.272 219.276 167.496C219.772 167.736 220.412 167.856 221.196 167.856Z" fill="#D9C96D"/>
</g>
</g>
</g>
<defs>
<filter id="filter0_d_644_8120" x="0" y="0" width="280" height="269" filterUnits="userSpaceOnUse" color-interpolation-filters="sRGB">
<feFlood flood-opacity="0" result="BackgroundImageFix"/>
<feColorMatrix in="SourceAlpha" type="matrix" values="0 0 0 0 0 0 0 0 0 0 0 0 0 0 0 0 0 0 127 0" result="hardAlpha"/>
<feOffset dy="4"/>
<feGaussianBlur stdDeviation="2"/>
<feComposite in2="hardAlpha" operator="out"/>
<feColorMatrix type="matrix" values="0 0 0 0 0 0 0 0 0 0 0 0 0 0 0 0 0 0 0.25 0"/>
<feBlend mode="normal" in2="BackgroundImageFix" result="effect1_dropShadow_644_8120"/>
<feBlend mode="normal" in="SourceGraphic" in2="effect1_dropShadow_644_8120" result="shape"/>
</filter>
<filter id="filter1_i_644_8120" x="141.105" y="79.6479" width="90.4609" height="94.416" filterUnits="userSpaceOnUse" color-interpolation-filters="sRGB">
<feFlood flood-opacity="0" result="BackgroundImageFix"/>
<feBlend mode="normal" in="SourceGraphic" in2="BackgroundImageFix" result="shape"/>
<feColorMatrix in="SourceAlpha" type="matrix" values="0 0 0 0 0 0 0 0 0 0 0 0 0 0 0 0 0 0 127 0" result="hardAlpha"/>
<feOffset dy="4"/>
<feGaussianBlur stdDeviation="2"/>
<feComposite in2="hardAlpha" operator="arithmetic" k2="-1" k3="1"/>
<feColorMatrix type="matrix" values="0 0 0 0 0 0 0 0 0 0 0 0 0 0 0 0 0 0 0.25 0"/>
<feBlend mode="normal" in2="shape" result="effect1_innerShadow_644_8120"/>
</filter>
<clipPath id="clip0_644_8120">
<rect x="4" width="272" height="261" rx="10" fill="white"/>
</clipPath>
</defs>
</svg>
