<svg width="280" height="269" viewBox="0 0 280 269" fill="none" xmlns="http://www.w3.org/2000/svg">
<g filter="url(#filter0_d_644_8119)">
<g clip-path="url(#clip0_644_8119)">
<path d="M4 10C4 4.47715 8.47715 0 14 0H266C271.523 0 276 4.47715 276 10V251C276 256.523 271.523 261 266 261H14C8.47715 261 4 256.523 4 251V10Z" fill="white"/>
<rect x="4" y="-2" width="110" height="265" fill="#E3D068"/>
<path d="M-2 198H16.0414M120.763 198H102.722M16.0414 198C16.0414 187.51 19.1342 166.339 31.5055 165.58M16.0414 198H31.5055M31.5055 165.58C34.4161 165.58 36.9356 165.58 39.1019 165.58M31.5055 165.58V198M50.3608 153.642V162.58C50.3608 164.237 49.0178 165.58 47.3609 165.58C47.1926 165.58 47.017 165.58 46.834 165.58M50.3608 153.642C44.754 151.246 33.1333 143.225 31.5055 130.311M50.3608 153.642C53.547 154.295 60.983 154.915 68.4023 153.095M31.5055 130.311C31.5055 124.303 31.5055 118.447 31.5055 113.49M31.5055 130.311C30.0134 129.723 26.5679 126.54 24.723 118.509C24.0719 114.06 28.9734 113.309 31.5055 113.49M31.5055 101.417C24.0448 99.2469 8.63495 94.1736 6.68159 91.2436C8.96051 88.6391 20.2014 87.3549 25.5369 87.0384C28.4308 86.9028 34.7069 85.0579 36.6602 78.7638C38.2593 73.6113 41.6037 68.5921 43.8805 65.7006C44.7052 64.6533 45.9369 64.0145 47.2695 63.9822C50.9161 63.8938 56.2181 64.4615 58.3642 67.2335C63.6545 64.9275 68.131 61.6719 71.7935 63.571C75.4561 65.4701 82.5099 74.1516 84.9516 83.3758C85.1686 85.6547 90.1967 86.8575 92.6836 87.174C97.8383 87.3097 108.799 88.0422 111.403 89.887M31.5055 101.417C31.7768 101.598 35.0324 102.096 45.8844 102.638C57.3608 104.617 77.075 102.236 87.8002 100.43M31.5055 101.417C31.5055 103.71 31.5055 108.061 31.5055 113.49M111.403 89.887C109.667 93.5767 96.8435 98.1164 90.6489 99.9251C89.7941 100.085 88.8394 100.255 87.8002 100.43M111.403 89.887C110.68 95.5391 104.946 106.952 87.8002 107.386M87.8002 107.386C87.8002 109.419 87.8002 111.477 87.8002 113.49M87.8002 107.386V100.43M87.8002 130.311C86.2176 136.144 80.9092 148.623 72.3361 151.879C71.0414 152.371 69.7221 152.772 68.4023 153.095M87.8002 130.311C87.8002 127.375 87.8002 120.717 87.8002 113.49M87.8002 130.311C89.1567 129.768 92.2224 126.648 93.6331 118.509C93.6331 114.819 89.7445 113.626 87.8002 113.49M65.2823 141.434C66.3223 141.344 68.972 140.62 71.2509 138.45C73.2043 140.186 80.2038 145.684 83.4594 148.216M83.4594 148.216L90.1063 153.236M83.4594 148.216L86.5794 147.267M83.4594 148.216L83.7307 150.658M96.7531 158.255C96.3461 160.787 97.6484 165.661 106.113 164.901C106.113 158.173 99.873 157.667 96.7531 158.255ZM96.7531 158.255L90.7845 153.748M90.1063 153.236L93.6331 152.693M90.1063 153.236L90.7845 153.748M93.6331 152.693C94.5375 150.613 97.5399 147.484 102.315 151.608C99.6017 155.84 95.3966 154.095 93.6331 152.693ZM86.5794 147.267C86.9863 145.503 89.1838 142.763 94.7184 145.91C92.2224 150.143 88.2524 148.578 86.5794 147.267ZM83.7307 150.658C82.329 152.105 80.5836 155.867 84.8159 159.34C87.8545 155.867 85.3585 152.105 83.7307 150.658ZM90.7845 153.748L91.0558 156.627M91.0558 156.627C89.6541 158.164 87.9359 161.971 92.2766 164.901C95.8096 160.452 92.9348 157.531 91.0558 156.627ZM68.4023 153.095V161.901C68.4023 163.558 69.7454 164.901 71.4023 164.901H72.3361M88.0715 164.901C93.0906 165.896 103.047 173.909 102.722 198M88.0715 164.901H80.2038M88.0715 164.901V198M102.722 198H88.0715M39.1019 165.58V186.198H80.2038V164.901M39.1019 165.58C42.4992 165.58 45.0279 165.58 46.834 165.58M80.2038 164.901H72.3361M46.834 165.58C47.1957 169.061 50.1981 176.16 59.3137 176.703C68.2124 175.835 71.7031 168.474 72.3361 164.901M55.1086 121.358C55.2442 123.393 56.1861 126.241 59.585 126.241C63.1119 126.241 63.2928 122.579 63.1119 121.358M31.5055 198H88.0715" stroke="white" stroke-width="3"/>
<circle cx="44.392" cy="112.812" r="2.30605" fill="white"/>
<circle cx="74.5092" cy="112.812" r="2.30605" fill="white"/>
<g filter="url(#filter1_i_644_8119)">
<path d="M141.848 121V105.352H151.712V108.328H145.376V111.952H150.8V114.928H145.376V121H141.848ZM151.504 121L156.4 105.352H160.624L165.544 121H161.8L159.76 113.08C159.536 112.296 159.32 111.464 159.112 110.584C158.904 109.704 158.696 108.856 158.488 108.04H158.392C158.216 108.856 158.024 109.704 157.816 110.584C157.608 111.464 157.392 112.296 157.168 113.08L155.104 121H151.504ZM154.72 117.28V114.52H162.256V117.28H154.72ZM167.254 121V105.352H172.894C173.998 105.352 175.006 105.504 175.918 105.808C176.83 106.096 177.558 106.6 178.102 107.32C178.646 108.024 178.918 108.992 178.918 110.224C178.918 111.424 178.646 112.4 178.102 113.152C177.558 113.904 176.83 114.464 175.918 114.832C175.006 115.184 173.998 115.36 172.894 115.36H170.782V121H167.254ZM170.782 112.552H172.606C173.534 112.552 174.238 112.36 174.718 111.976C175.214 111.576 175.462 110.992 175.462 110.224C175.462 109.456 175.214 108.92 174.718 108.616C174.238 108.312 173.534 108.16 172.606 108.16H170.782V112.552ZM175.726 121L172.246 114.448L174.694 112.168L179.686 121H175.726ZM181.973 121V105.352H185.909L188.405 112.312C188.565 112.776 188.709 113.248 188.837 113.728C188.981 114.192 189.125 114.68 189.269 115.192H189.365C189.509 114.68 189.645 114.192 189.773 113.728C189.901 113.248 190.045 112.776 190.205 112.312L192.653 105.352H196.589V121H193.349V115.264C193.349 114.752 193.373 114.152 193.421 113.464C193.485 112.76 193.549 112.064 193.613 111.376C193.693 110.672 193.765 110.064 193.829 109.552H193.733L192.461 113.68L190.253 119.656H188.189L186.005 113.68L184.781 109.552H184.685C184.749 110.064 184.813 110.672 184.877 111.376C184.957 112.064 185.021 112.76 185.069 113.464C185.117 114.152 185.141 114.752 185.141 115.264V121H181.973ZM200.254 121V105.352H210.046V108.328H203.782V111.472H209.11V114.424H203.782V118.024H210.286V121H200.254ZM213.403 121V105.352H219.043C220.147 105.352 221.155 105.504 222.067 105.808C222.979 106.096 223.707 106.6 224.251 107.32C224.795 108.024 225.067 108.992 225.067 110.224C225.067 111.424 224.795 112.4 224.251 113.152C223.707 113.904 222.979 114.464 222.067 114.832C221.155 115.184 220.147 115.36 219.043 115.36H216.931V121H213.403ZM216.931 112.552H218.755C219.683 112.552 220.387 112.36 220.867 111.976C221.363 111.576 221.611 110.992 221.611 110.224C221.611 109.456 221.363 108.92 220.867 108.616C220.387 108.312 219.683 108.16 218.755 108.16H216.931V112.552ZM221.875 121L218.395 114.448L220.843 112.168L225.835 121H221.875ZM228.745 112.552L227.977 111.016C228.697 110.664 229.233 110.248 229.585 109.768C229.953 109.272 230.137 108.664 230.137 107.944L230.041 105.88L231.217 107.488C231.025 107.632 230.817 107.752 230.593 107.848C230.385 107.944 230.161 107.992 229.921 107.992C229.409 107.992 228.969 107.832 228.601 107.512C228.249 107.192 228.073 106.768 228.073 106.24C228.073 105.632 228.241 105.152 228.577 104.8C228.929 104.448 229.377 104.272 229.921 104.272C230.657 104.272 231.217 104.552 231.601 105.112C231.985 105.656 232.177 106.424 232.177 107.416C232.177 108.552 231.897 109.552 231.337 110.416C230.777 111.264 229.913 111.976 228.745 112.552ZM237.97 121.288C237.186 121.288 236.378 121.136 235.546 120.832C234.714 120.528 234.002 120.088 233.41 119.512L234.898 117.52C235.442 117.952 235.978 118.256 236.506 118.432C237.05 118.592 237.57 118.672 238.066 118.672C238.594 118.672 238.978 118.584 239.218 118.408C239.458 118.216 239.578 117.968 239.578 117.664C239.578 117.392 239.466 117.168 239.242 116.992C239.034 116.816 238.754 116.664 238.402 116.536C238.066 116.392 237.682 116.24 237.25 116.08C236.674 115.872 236.146 115.608 235.666 115.288C235.186 114.968 234.794 114.584 234.49 114.136C234.202 113.688 234.058 113.152 234.058 112.528C234.058 111.408 234.474 110.512 235.306 109.84C236.154 109.152 237.258 108.808 238.618 108.808C239.482 108.808 240.266 108.952 240.97 109.24C241.69 109.512 242.306 109.872 242.818 110.32L241.306 112.288C240.874 111.984 240.442 111.768 240.01 111.64C239.578 111.496 239.154 111.424 238.738 111.424C238.274 111.424 237.93 111.512 237.706 111.688C237.482 111.864 237.37 112.088 237.37 112.36C237.37 112.584 237.45 112.776 237.61 112.936C237.77 113.096 238.01 113.248 238.33 113.392C238.666 113.52 239.082 113.664 239.578 113.824C240.186 114.032 240.738 114.296 241.234 114.616C241.746 114.92 242.146 115.304 242.434 115.768C242.722 116.232 242.866 116.792 242.866 117.448C242.866 118.168 242.674 118.816 242.29 119.392C241.922 119.968 241.378 120.432 240.658 120.784C239.938 121.12 239.042 121.288 237.97 121.288ZM148.472 155.288C147.128 155.288 145.896 154.992 144.776 154.4C143.672 153.792 142.784 152.888 142.112 151.688C141.44 150.488 141.104 149.016 141.104 147.272C141.104 145.976 141.296 144.824 141.68 143.816C142.08 142.792 142.624 141.928 143.312 141.224C144 140.52 144.784 139.984 145.664 139.616C146.56 139.248 147.504 139.064 148.496 139.064C149.504 139.064 150.408 139.264 151.208 139.664C152.008 140.064 152.672 140.544 153.2 141.104L151.328 143.24C150.944 142.872 150.528 142.6 150.08 142.424C149.632 142.232 149.128 142.136 148.568 142.136C147.88 142.136 147.24 142.344 146.648 142.76C146.072 143.16 145.608 143.736 145.256 144.488C144.904 145.24 144.728 146.128 144.728 147.152C144.728 148.224 144.896 149.144 145.232 149.912C145.568 150.664 146.032 151.24 146.624 151.64C147.232 152.04 147.928 152.24 148.712 152.24C149.32 152.24 149.864 152.112 150.344 151.856C150.824 151.6 151.248 151.296 151.616 150.944L153.392 153.032C152.72 153.784 151.976 154.352 151.16 154.736C150.344 155.104 149.448 155.288 148.472 155.288ZM161.286 155.288C159.878 155.288 158.638 154.96 157.566 154.304C156.51 153.648 155.678 152.712 155.07 151.496C154.478 150.28 154.182 148.816 154.182 147.104C154.182 145.408 154.478 143.96 155.07 142.76C155.678 141.56 156.51 140.648 157.566 140.024C158.638 139.384 159.878 139.064 161.286 139.064C162.694 139.064 163.934 139.384 165.006 140.024C166.078 140.648 166.91 141.56 167.502 142.76C168.094 143.96 168.39 145.408 168.39 147.104C168.39 148.816 168.094 150.28 167.502 151.496C166.91 152.712 166.078 153.648 165.006 154.304C163.934 154.96 162.694 155.288 161.286 155.288ZM161.286 152.24C162.006 152.24 162.622 152.032 163.134 151.616C163.662 151.184 164.062 150.584 164.334 149.816C164.622 149.048 164.766 148.144 164.766 147.104C164.766 146.064 164.622 145.176 164.334 144.44C164.062 143.688 163.662 143.12 163.134 142.736C162.622 142.336 162.006 142.136 161.286 142.136C160.582 142.136 159.966 142.336 159.438 142.736C158.91 143.12 158.502 143.688 158.214 144.44C157.942 145.176 157.806 146.064 157.806 147.104C157.806 148.144 157.942 149.048 158.214 149.816C158.502 150.584 158.91 151.184 159.438 151.616C159.966 152.032 160.582 152.24 161.286 152.24ZM171.332 155V139.352H176.972C178.076 139.352 179.084 139.504 179.996 139.808C180.908 140.096 181.636 140.6 182.18 141.32C182.724 142.024 182.996 142.992 182.996 144.224C182.996 145.424 182.724 146.4 182.18 147.152C181.636 147.904 180.908 148.464 179.996 148.832C179.084 149.184 178.076 149.36 176.972 149.36H174.86V155H171.332ZM174.86 146.552H176.684C177.612 146.552 178.316 146.36 178.796 145.976C179.292 145.576 179.54 144.992 179.54 144.224C179.54 143.456 179.292 142.92 178.796 142.616C178.316 142.312 177.612 142.16 176.684 142.16H174.86V146.552ZM179.804 155L176.324 148.448L178.772 146.168L183.764 155H179.804ZM186.051 155V139.352H189.747L193.755 147.056C194.043 147.584 194.307 148.152 194.547 148.76C194.803 149.352 195.051 149.96 195.291 150.584H195.387C195.307 149.736 195.211 148.808 195.099 147.8C194.987 146.792 194.931 145.824 194.931 144.896V139.352H198.315V155H194.619L190.611 147.296C190.339 146.768 190.067 146.2 189.795 145.592C189.539 144.984 189.291 144.376 189.051 143.768H188.955C189.051 144.632 189.155 145.568 189.267 146.576C189.379 147.568 189.435 148.528 189.435 149.456V155H186.051ZM202.012 155V139.352H211.804V142.328H205.54V145.472H210.868V148.424H205.54V152.024H212.044V155H202.012ZM215.161 155V139.352H220.801C221.905 139.352 222.913 139.504 223.825 139.808C224.737 140.096 225.465 140.6 226.009 141.32C226.553 142.024 226.825 142.992 226.825 144.224C226.825 145.424 226.553 146.4 226.009 147.152C225.465 147.904 224.737 148.464 223.825 148.832C222.913 149.184 221.905 149.36 220.801 149.36H218.689V155H215.161ZM218.689 146.552H220.513C221.441 146.552 222.145 146.36 222.625 145.976C223.121 145.576 223.369 144.992 223.369 144.224C223.369 143.456 223.121 142.92 222.625 142.616C222.145 142.312 221.441 142.16 220.513 142.16H218.689V146.552ZM223.633 155L220.153 148.448L222.601 146.168L227.593 155H223.633Z" fill="#D9C96D"/>
</g>
</g>
</g>
<defs>
<filter id="filter0_d_644_8119" x="0" y="0" width="280" height="269" filterUnits="userSpaceOnUse" color-interpolation-filters="sRGB">
<feFlood flood-opacity="0" result="BackgroundImageFix"/>
<feColorMatrix in="SourceAlpha" type="matrix" values="0 0 0 0 0 0 0 0 0 0 0 0 0 0 0 0 0 0 127 0" result="hardAlpha"/>
<feOffset dy="4"/>
<feGaussianBlur stdDeviation="2"/>
<feComposite in2="hardAlpha" operator="out"/>
<feColorMatrix type="matrix" values="0 0 0 0 0 0 0 0 0 0 0 0 0 0 0 0 0 0 0.25 0"/>
<feBlend mode="normal" in2="BackgroundImageFix" result="effect1_dropShadow_644_8119"/>
<feBlend mode="normal" in="SourceGraphic" in2="effect1_dropShadow_644_8119" result="shape"/>
</filter>
<filter id="filter1_i_644_8119" x="141.105" y="104.272" width="101.762" height="55.0161" filterUnits="userSpaceOnUse" color-interpolation-filters="sRGB">
<feFlood flood-opacity="0" result="BackgroundImageFix"/>
<feBlend mode="normal" in="SourceGraphic" in2="BackgroundImageFix" result="shape"/>
<feColorMatrix in="SourceAlpha" type="matrix" values="0 0 0 0 0 0 0 0 0 0 0 0 0 0 0 0 0 0 127 0" result="hardAlpha"/>
<feOffset dy="4"/>
<feGaussianBlur stdDeviation="2"/>
<feComposite in2="hardAlpha" operator="arithmetic" k2="-1" k3="1"/>
<feColorMatrix type="matrix" values="0 0 0 0 0 0 0 0 0 0 0 0 0 0 0 0 0 0 0.25 0"/>
<feBlend mode="normal" in2="shape" result="effect1_innerShadow_644_8119"/>
</filter>
<clipPath id="clip0_644_8119">
<path d="M4 10C4 4.47715 8.47715 0 14 0H266C271.523 0 276 4.47715 276 10V251C276 256.523 271.523 261 266 261H14C8.47715 261 4 256.523 4 251V10Z" fill="white"/>
</clipPath>
</defs>
</svg>
